<svg id="Layer_1" data-name="Layer 1" xmlns="http://www.w3.org/2000/svg" viewBox="0 0 238.23 362.49"><defs><style>.cls-1{fill:#abcecd;}.cls-2{fill:#181818;}</style></defs><title>spooky-af</title><path class="cls-1" d="M171.87,176.12c1.7.86,3.73.64,5.62.34a89.78,89.78,0,0,0,37.26-15c2.08-1.46,4.35-3.69,3.6-6.11-.56-1.82-2.7-2.75-4.59-2.57a12.62,12.62,0,0,0-5.2,2.19l-14.89,9.14c-3.45,2.13-7,4.3-11.07,4.81-3.28.42-7.33-.59-10.44.75C169.26,170.88,168.53,174.43,171.87,176.12Z"/><path class="cls-1" d="M122.67,208.18a10.71,10.71,0,0,0,1.46,7.1,21.55,21.55,0,0,0,4.85,5.54c.42.35,1,.72,1.47.54a1.57,1.57,0,0,0,.75-.83A38.35,38.35,0,0,0,134,214c.91-2.82,1.44-6.08-.1-8.61C130.12,199.15,123.8,201.75,122.67,208.18Z"/><path class="cls-1" d="M153.14,173.6a16,16,0,0,1,1.31,3.36,13.16,13.16,0,0,1,1.71-2.34,1.16,1.16,0,0,1,1.74,0,1.21,1.21,0,0,1,.56-.78l.36-.2c-.53.06-1.06.12-1.59.15A18.7,18.7,0,0,1,153.14,173.6Z"/><path class="cls-1" d="M166.32,164.26c-3.75-.39-8-.92-11.44.87a8.19,8.19,0,0,0-3.4,3c-.25.43-.9,1.55-.71,2.07s1.74.68,2.19.78a19.64,19.64,0,0,0,10.92-1.17c1.41-.52,3.43-1.13,4.39-2.37s-.39-2.5-1.4-3.29A1,1,0,0,1,166.32,164.26Z"/><path class="cls-1" d="M127,334.51h-1.68a5.12,5.12,0,0,0-1.75.05c-.74.33-.69,1.76-.58,2.45a6.07,6.07,0,0,0,1.17,2.72c2.23,3,6.59,4.38,9.89,5.7a91.12,91.12,0,0,0,11.53,3.72,89.92,89.92,0,0,0,21.48,2.65,9,9,0,0,1,1.24-2.7l-2.8-1.72a18.45,18.45,0,0,1-3.12-2.05,1,1,0,0,1-.77.52c-.4.07-.79.12-1.18.16l6.45,2.89c1.47.66.19,2.81-1.26,2.16l-20.44-9.18c-4.82-2.16-9.82-4.18-14.05-7.41a1.36,1.36,0,0,1-.3,0Z"/><path class="cls-1" d="M151.41,175.94a12.19,12.19,0,0,0-1.14-2.25,4.91,4.91,0,0,0-4.87-2.21,43,43,0,0,0-6,1.43,41.63,41.63,0,0,1-6.66,1.07,24,24,0,0,1-11.45-1.8,16,16,0,0,1-8.41-8.43c-1.24-2.71.68-6-3.22-7.61-5.63-2.39-9.43,8.37-10.66,7.5a33.92,33.92,0,0,1-3-2.35,4.3,4.3,0,0,1-.22.69,1.15,1.15,0,0,1,.26.53c1.26,5.94,7.52,10.16,6.54,16.73-.41,2.72-2.23,4.62-4.41,6.13-1.94,1.35-4.37,2.43-5.67,4.5a7.15,7.15,0,0,0-.54,6,7.25,7.25,0,0,0,4.22,4.25c1.79.84,3.82,1.6,5,3.29a4.75,4.75,0,0,1,.79,3c0,1-.65,2.56.41,3.24a5.29,5.29,0,0,0,2.65.36c1,0,2.1-.06,3.15,0,2.66.27,4.52,1.87,6.3,3.74q6.84,7.15,13.65,14.36c4.32,4.55,8.79,9,12.93,13.71,3.5,4,6.55,8.4,7.31,13.74.31,2.12.35,5.09,2.74,5.91a20.84,20.84,0,0,1,3.53,1.08,4.77,4.77,0,0,1,2.06,2.45c.92,2.41.11,4.86-.51,7.23-.33,1.27-.77,3,.07,4.16.44.62,1.55,1.45,2.28.83,1.22-1,3,.72,1.77,1.77l-.38.29a1.27,1.27,0,0,1,.28.69q1,8.89,2.19,17.76,2.16,15.48,5.19,30.84c.73,3.7,2.08,8.36-.83,11.48-.66.71-1.47,1.25-2.16,1.91s-1.05,1.06-.19,1.76a27.86,27.86,0,0,0,3.14,1.94l3.21,2a1.26,1.26,0,0,1,.25,2,6.52,6.52,0,0,0-1.33,2.12h.07l10.47.13c3,0,7.5.43,8.93-2.9,1.2-2.8-2.59-4.35-4.26-5.85a27.42,27.42,0,0,1-5.58-7.09c-3.09-5.46-4.64-11.62-5.72-17.76-1.18-6.73-2.06-13.52-3.06-20.27L167.43,277a1.34,1.34,0,0,1,.81-1.44,1.19,1.19,0,0,1-.48-1.68c1.12-2,2.68-4.58,1.43-6.86-.57-1-1.5-1.11-2.45-1.61a3,3,0,0,1-1.59-2c-.46-1.92,1.2-3.54,1-5.4s-2.59-2.56-3.92-3.16A26,26,0,0,1,153,247.4c-3.23-3.83-6.38-7.73-9.56-11.6L124,212.2l-5.06-6.15a59.82,59.82,0,0,1-4.3-5.37c-1-1.56-1.7-3.58-.76-5.34a5.65,5.65,0,0,1,4.56-2.57,8.46,8.46,0,0,1,8.45,4.79,8.17,8.17,0,0,1,.57,4.44,1.21,1.21,0,0,1,.84.34c3,2.79,6.52,6.1,10.91,6.07a6.75,6.75,0,0,0,4.74-1.76,5.91,5.91,0,0,0,1.12-5.84c-.86-3.16-4.77-6.77-1.81-10,2-2.21,5.61-1.81,7.55-4.17s1.92-5.61,1.34-8.31A15.58,15.58,0,0,0,151.41,175.94Zm-9-14.73a7.05,7.05,0,0,1-1.91.16,4.46,4.46,0,0,1,1.1,2.64,3.39,3.39,0,0,1-2.06,3.36c-1.69.57-4.11-.36-5.79-.69l-6.48-1.25c-2.57-.5-7.74-.63-8.51-3.91a3.08,3.08,0,0,1,1.53-3.28,11.42,11.42,0,0,1,1.74-.79,2.81,2.81,0,0,1-.82-.48,2.34,2.34,0,0,1-.68-2.37,3.49,3.49,0,0,1,1.86-2.12,5.22,5.22,0,0,1,1.34-.4c-1.38-1.37-2.27-3.21-.81-5a4.51,4.51,0,0,1,4.28-1.22,10.86,10.86,0,0,1,1.81-6.43,8.08,8.08,0,0,1,7.78-3.17c6.29.82,8.68,7.74,6.17,13-.73,1.49-1.77,3.62-1.09,5.31.57,1.39,2.12,2.12,2.37,3.7A2.59,2.59,0,0,1,142.38,161.21Z"/><path class="cls-1" d="M193.15,100.53a61.65,61.65,0,0,0,4.37,13.34c1.93,4.53,3.82,9.07,5.6,13.66s3.55,9.41,5.18,14.17c1.23,3.58,3.52,8.16,1.89,11.92,4.3.87,9.9,1.14,11.08-4a15.7,15.7,0,0,0-.33-6.43c-.43-2.18-1-3.8-3.22-4.67a10.65,10.65,0,0,1-4.7-3,17.57,17.57,0,0,1-2.67-4.95c-1.83-4.74-3.36-9.61-5-14.41L200.11,101a1.09,1.09,0,0,1,.07-.93l-1.14.19A21.87,21.87,0,0,1,193.15,100.53Z"/><path class="cls-1" d="M102,250.71a17.52,17.52,0,0,1-6,2.11c-3.38.69-8.22,1.38-9.41,5.24a1.27,1.27,0,0,1-1.84.75,161.84,161.84,0,0,0-14.67-8.19q-6.69-3.28-13.64-5.94C52.83,243.3,49.07,242,46,239.59a12.58,12.58,0,0,1-3.64-4.33c-.91-1.87-1.2-4-2.64-5.6-2.46-2.73-6.18-3.93-8.61-6.73-4-.38-6.24,4.3-7.88,7.22-2.29,4.09-4.55,8.21-6.56,12.45-6.41,13.51-10.37,30.79-1.24,44.1.93,1.35,2.21,3.34,3.93,3.69.65.14,1.73-.05,2-.78s-.62-1.7-1-2.29a25.6,25.6,0,0,1-4-9.67,27,27,0,0,1,3.91-20,1.32,1.32,0,0,1,2.31.27,35.16,35.16,0,0,1,5.58-11.27c1.35-1.81,3.21-4.61,5.52-5.2,2.79-.71,5,2.12,7,3.57,9.14,6.63,20.56,8.8,30.35,14.22,5.37,3,10.06,7.47,16,9.32a13.41,13.41,0,0,0,8.93,0c2.68-1.07,4.72-3.28,6.57-5.42a263,263,0,0,0,23.56-32,1.2,1.2,0,0,1,1-.58l-2.25-2.35L119,222.15a110.59,110.59,0,0,1-12.85,24.42A15.56,15.56,0,0,1,102,250.71Z"/><path class="cls-1" d="M21.36,284.3c.79,1.39,2.16,2.77,2.46,4.4.76.25,2.26.67,2.74.07s-1.6-3.28-1.88-3.83a34.94,34.94,0,0,1-2.83-8,38.41,38.41,0,0,1,.07-16.6c.08-.35.17-.7.26-1A24.59,24.59,0,0,0,21.36,284.3Z"/><path class="cls-1" d="M122.87,205.5c2.95-2.54,2.91-7.39-.6-9.43a5.77,5.77,0,0,0-5.25-.4c-2.59,1.27,0,4.18,1.12,5.55q2.17,2.63,4.34,5.27A1.07,1.07,0,0,1,122.87,205.5Z"/><path class="cls-1" d="M159.43,186.26c-1.94,2.57,2.4,4,4.2,4.1a15.47,15.47,0,0,0,8.19-1.85,12.62,12.62,0,0,0,5.73-5.1,4.88,4.88,0,0,0,.56-3.19c-.22-.94-1-2.14-2.12-1.79a1.2,1.2,0,0,1-1.51-1.48l-.34.44a19.52,19.52,0,0,1-8.58,6.19,19.86,19.86,0,0,1-6.25,1.26A1,1,0,0,1,159.43,186.26Z"/><path class="cls-1" d="M82.39,147a6.91,6.91,0,0,1,3.4.5,4.89,4.89,0,0,1,1.91-5.39,5,5,0,0,1,4-.57,5.89,5.89,0,0,1,2-4.93A88,88,0,0,1,81.05,89a10.1,10.1,0,0,1-3.75.49A18.77,18.77,0,0,1,73.08,89a1,1,0,0,1,.77,1.14,78.62,78.62,0,0,0,8.4,43.24,1.3,1.3,0,0,1-.19,1.51,17.08,17.08,0,0,0-3.83,10.67,15.89,15.89,0,0,0,.4,3.65A5.34,5.34,0,0,1,82.39,147Z"/><path class="cls-1" d="M155.52,180.85c-.08.35-.28.86,0,1.07a2.91,2.91,0,0,0,1,.22,15.12,15.12,0,0,0,2.33.16,17.09,17.09,0,0,0,13.68-6.9c.56-.79,1.95-2.33.53-2.85a8.91,8.91,0,0,0-4.2.08,25,25,0,0,0-9.13,3.41,1.12,1.12,0,0,1-1.49-.21,1.17,1.17,0,0,1-.31.56A9.38,9.38,0,0,0,155.52,180.85Z"/><path class="cls-1" d="M97,145.38l.3.38a33.58,33.58,0,0,0,7.33,7.05c1.5-3.87-.84-8.07-3.47-11-1.08-1.2-3.34-4.3-5.26-3.66-2.46.82-1.69,4.42-1.3,6.23.34,1.57-2.07,2.23-2.41.66-.29-1.36-2.21-1.58-3.21-.82-1.66,1.27-.72,3.89.4,5.22a1,1,0,0,1,.83.59,37.33,37.33,0,0,0,2,3.26,32.66,32.66,0,0,1,2.3,2.42,8.89,8.89,0,0,1,1,1.65,32.09,32.09,0,0,0,3.83,3.44c2.69-4.53-1.31-10.13-4.1-13.65h0l-.2-.24C94.2,145.76,96.14,144.28,97,145.38Z"/><path class="cls-1" d="M139.63,74.51l.21,0a6.36,6.36,0,0,1,4.76-.12c2.5.87,4.19,2.92,6.12,4.62,3.42,3,8,3.34,12.33,3.41s8.83-.13,12.9,1.48c1.86.74,4.19,1.83,4.53,4a3.54,3.54,0,0,1,0,1,1.12,1.12,0,0,1,.56-.11c4.06.12,5.11,4.34,7.44,6.85,2.82,3,7.65,2.62,11.34,1.84.92-.19,2.27-.3,2.75-1.22a8.54,8.54,0,0,0,.46-3.11,20.1,20.1,0,0,0-.29-6.61A9,9,0,0,0,195.14,80a9.67,9.67,0,0,0-5.13.86c-1.89.78-3.84,1.51-5.87.75-1.72-.65-3.19-1.82-4.92-2.47a26.62,26.62,0,0,0-5.2-1.32c-7.22-1.16-14.92-.1-21.84-2.91-3.8-1.54-6.33-4.24-9-7.22-2.38-2.62-6.43-6-10.06-3.51-1,.69-2.43-.71-1.71-1.72,1.71-2.38.19-6-2.62-6.76s-5.82,1.21-7,3.74c-1.47,3.2-.51,7.39,1.67,10.05,2.41,2.93,6.33,1.67,9.6,2.35a6.71,6.71,0,0,1,4.87,3.43A1.66,1.66,0,0,1,139.63,74.51Z"/><path class="cls-1" d="M88.17,151.65l-.17-.09c-1.37-.92-2.9-2-4.61-2.14a2.74,2.74,0,0,0-3,1.82,1.12,1.12,0,0,1-.81.86,17.19,17.19,0,0,0,8.22,8.56c1.3.63,3.13,1.45,4.6,1.12s1.4-1.91,1-3.07a34.44,34.44,0,0,1-3.19-4A9.58,9.58,0,0,1,88.17,151.65Z"/><path class="cls-1" d="M133.05,329.36c-1.05-.6-2.61-1.48-3.88-1.29-.4.06-.42-.19-.45.25a1.71,1.71,0,0,0,.26.58,7.66,7.66,0,0,0,1,1.17,25.24,25.24,0,0,0,5.88,4.55,104.62,104.62,0,0,0,11,5.32l-.64-.56A80.49,80.49,0,0,0,133.05,329.36Z"/><path class="cls-1" d="M93.47,74q-3,.87-6,1.59c-1.7.42-3.67,1.16-5.43.92s-2.35-1.73-3.69-2.7a4.74,4.74,0,0,0-4.46-.36C71,74.66,67.62,79,68.6,82.29,69.73,86.1,74.29,87,77.72,87a6.62,6.62,0,0,0,2.57-.36,5.46,5.46,0,0,0,2-1.85,10.49,10.49,0,0,1,4.09-2.9c3.74-1.6,7.55-3,11.33-4.54,7.57-3,15.23-5.79,23.35-6.82a13.78,13.78,0,0,1-2.38-6.27A152.31,152.31,0,0,1,93.47,74Z"/><path class="cls-1" d="M190.71,12.39c-9.07-3.58-20.67-4-28.9,1.94-4,2.85-6.77,7.29-8.88,11.62a28.07,28.07,0,0,0-2.2,5.87c-.39,1.68.33,3.65-.64,5.15-.76,1.19-2.07,1.23-3.3,1.54a5.08,5.08,0,0,0-3,2.14,4.75,4.75,0,0,0-.55,4.05,6.27,6.27,0,0,0,2.25,2.93c2.16,1.89.91,5.2.19,7.73h.05c1.47.36,2.93.77,4.38,1.22A10.38,10.38,0,0,1,151,55a1.27,1.27,0,0,1,1.71-.45,1.25,1.25,0,0,1,.45,1.71,9.47,9.47,0,0,0-.65,1.11c2,.67,4,1.38,6,2.09l1.11-2.23a1.26,1.26,0,0,1,1.71-.45,1.28,1.28,0,0,1,.45,1.71l-.9,1.8c1.45.51,2.9,1,4.36,1.44a14.74,14.74,0,0,1,1.59-2.17,1.25,1.25,0,0,1,1.77,1.76l-.3.35-.12.16a.4.4,0,0,0-.07.09l0,0-.12.16-.22.32a53.34,53.34,0,0,0,5.74,1.25,1,1,0,0,1,.9.91c1.26-1.46,2.41-3,3.49-4.58a1.3,1.3,0,0,1,1.71-.45c7.9,3.59,17.6,4.05,24.89-1.2a18.14,18.14,0,0,0,6.71-9c1.43-4.48.52-8.87-.79-13.24a46,46,0,0,0-5.59-12.52A30.32,30.32,0,0,0,190.71,12.39ZM150.82,40.1a2.35,2.35,0,0,1-.8-2.75,13,13,0,0,1,1.07-2.22,7.79,7.79,0,0,1,1.47-1.91,4.55,4.55,0,0,1,4.5-1.18A3.4,3.4,0,0,1,159.29,36a1.28,1.28,0,0,1-1.54.87,1.27,1.27,0,0,1-.87-1.54l0-.11a.18.18,0,0,1,0-.06.25.25,0,0,1,0-.07,1.09,1.09,0,0,1,0-.14,1.4,1.4,0,0,0-.1-.16h0l-.2-.21h0l-.13-.08-.13-.07-.25-.06s-.24,0-.3,0h0l-.12,0-.32.09-.12,0h0l-.47.29A8.62,8.62,0,0,1,154.5,37a5.91,5.91,0,0,1-1,2.53A1.93,1.93,0,0,1,150.82,40.1Zm9.41,12.61a1.25,1.25,0,0,1-1.54-.87,12.31,12.31,0,0,0-.33-1.46c-.07-.23-.14-.44-.22-.66,0-.06,0-.12-.07-.17l0-.08a2.16,2.16,0,0,0-.09-.2,9.42,9.42,0,0,0-.73-1.32q-.18-.29-.39-.57c-.05-.07-.05-.07,0,0l-.08-.09a3.22,3.22,0,0,0-.24-.28l-.22-.21-.18-.12h0a1.56,1.56,0,0,0-.12.11c-.18.18-.34.39-.51.58-.73.83-1.45,1.67-2.17,2.5a1.25,1.25,0,0,1-1.77-1.77c.84-1,1.67-2,2.53-2.91a2.75,2.75,0,0,1,1.92-1,2.91,2.91,0,0,1,1.94.75A8.58,8.58,0,0,1,160,47.78a12,12,0,0,1,1.1,3.4A1.27,1.27,0,0,1,160.23,52.71Zm20.31-7.89a1.28,1.28,0,0,1-1.25,1.25A1.26,1.26,0,0,1,178,44.82c.15-1.51.42-3.42-.58-4.71s-2.56-1.84-3.86-2.46a5.53,5.53,0,0,0-4.07-.59,5.19,5.19,0,0,0-2.82,2.42,8.79,8.79,0,0,0-1.09,4.11,19.25,19.25,0,0,1,3.5-5.75,2.15,2.15,0,0,1,3.07-.45A3.13,3.13,0,0,1,173,40c-.31,3.51-1.69,8.11-6,8a3.8,3.8,0,0,1-3.7-2.8,10.14,10.14,0,0,1,.93-6.31,8,8,0,0,1,4.25-4.09,7.75,7.75,0,0,1,6.17.58c1.81.82,3.83,1.79,5,3.46S180.74,42.8,180.54,44.82Z"/><path class="cls-1" d="M156.91,35.25Z"/><path class="cls-1" d="M170.45,40.45c0-.12,0-.24,0-.36-.18.22-.36.45-.53.69a18.72,18.72,0,0,0-2.17,4,1.42,1.42,0,0,1-.49.66C169.62,45.33,170.2,42.33,170.45,40.45Z"/><path class="cls-1" d="M166.48,64.7a.36.36,0,0,0,0,.09c-.05.12-.1.25-.14.37a12,12,0,0,0-.46,1.55,1.25,1.25,0,1,1-2.41-.67,14.24,14.24,0,0,1,.65-2c-1.45-.46-2.9-1-4.34-1.45-.36.72-.71,1.44-1.07,2.17a1.25,1.25,0,0,1-2.16-1.27l.86-1.74c-1.86-.67-3.73-1.33-5.61-2a.29.29,0,0,0,0,.09v0a1.23,1.23,0,0,1,0,.19l0,.45c0,.25,0,.51,0,.77a3.4,3.4,0,0,0,0,.45c0,.05.06.51,0,.21a1.29,1.29,0,0,1-.88,1.54,1.24,1.24,0,0,1-1.53-.87,11.33,11.33,0,0,1,.06-3.63c-1.4-.43-2.81-.84-4.24-1.19-.43,2.5-.46,5.25,1.24,7.23,1.86,2.17,5.42,3,8,3.9a24.45,24.45,0,0,0,9.93,1.64A13.83,13.83,0,0,0,173,66.12h-.16A53.8,53.8,0,0,1,166.48,64.7Z"/><path class="cls-1" d="M170.49,39.25h0C170.5,39.17,170.5,39.14,170.49,39.25Z"/><path class="cls-1" d="M170.49,39.25c0-.35-.07-.07,0,0Z"/><path class="cls-1" d="M163.22,92.56a20.18,20.18,0,0,0,7.51,0c2.17-.43,4.82-1.12,6.48-2.65.78-.73,1.13-1.54.23-2.34a8.08,8.08,0,0,0-2.32-1.23,19.06,19.06,0,0,0-5.33-1.13c-3.6-.3-7.22,0-10.81-.39a17.12,17.12,0,0,1-9.71-3.68c-1.51-1.28-2.8-2.92-4.55-3.89-1.42-.79-3.4-1.1-4.61.19a1.16,1.16,0,0,1-.68.37c-.05.18-.11.36-.16.53a5.75,5.75,0,0,0-.22,1.7,7.76,7.76,0,0,0,6.27,7.47c1.08.13,1.88,1.73.63,2.33-3.12,1.48-6.2.17-9.09-1.21-1.86-.9-5.23-2.37-7-.54-2.19,2.24,1.39,5.26,3.27,6.09,2.83,1.24,5.87,1.76,8.21,3.93a1.27,1.27,0,0,1-.88,2.14c-3.17,0-6.05-1.34-9.15-1.72-2-.25-4.73.21-5.9,2.08-1.52,2.43,1.3,4.69,3.36,5.43,2.78,1,5.76,1,8.49,2.19a1.26,1.26,0,0,1-.3,2.28c-3.68.74-7.27-.19-11-.17-2.38,0-5.36.73-6.73,2.87-1.65,2.58.4,5.48,2.75,6.7,3.32,1.71,7.44.51,10.82-.38a1.26,1.26,0,0,1,1.22,2.09c-2.76,2.6-6.37,3.52-9.64,5.26-2.69,1.43-6,4.2-4.43,7.61a2.72,2.72,0,0,0,2.91,1.82c1.5-.32,2.69-1.8,3.85-2.71a18.94,18.94,0,0,1,8.52-4c6.84-1.09,11.85,3.65,14.88,9.28,1.63,3,2.86,6.3,4.71,9.23.84,1.32,2.1,3.36,3.91,3.23,1.52-.1,2.58-1.59,2.91-2.94.79-3.26-.77-7.34-2.1-10.28a30.18,30.18,0,0,0-5.79-8.51,1.26,1.26,0,0,1,1.52-2c3.27,1.7,6.09,4.36,9.61,5.57,2.44.84,5.69.58,7.5-1.48,2.33-2.65-.5-5.55-2.83-6.89-2.89-1.66-6.25-2.48-8.38-5.22-.79-1,.28-2.89,1.51-2a31.41,31.41,0,0,0,9.85,5.09c1.85.56,8.59,2.61,8.15-1.33-.36-3.33-4.31-5.63-6.81-7.25a57.08,57.08,0,0,0-10.45-5.39c-1.2-.47-1.18-2.64.33-2.45,4.07.51,8.14,1.11,12.22,1.51,1.82.18,4,.33,5.55-.73,1.14-.75,2.12-2.21,1.5-3.59s-2.15-1.89-3.35-2.35c-1.84-.69-3.71-1.33-5.56-2L162.55,95A1.25,1.25,0,0,1,163.22,92.56Z"/><path class="cls-1" d="M136.11,138.72c-5.11-.37-6.88,4.52-6.34,8.82a1.26,1.26,0,0,1-1.58,1.21c-.84-.33-2.19-.74-3.06-.29-1.49.8.91,2.43,1.59,2.85a1.26,1.26,0,0,1,.25,2,5.08,5.08,0,0,1-1.94,1c-.5.14-1.68.21-2,.74-.15.29,0,.17.36.3a6.47,6.47,0,0,1,.84.3,2.41,2.41,0,0,1,1.19,1.1,1.32,1.32,0,0,1-.2,1.52,5.51,5.51,0,0,1-2.17,1.44c-.45.19-1.73.49-1.9,1-.45,1.42,5.06,2,5.75,2.12l8.89,1.72c.84.16,3.07,1.12,3.24-.24.13-1.11-1.13-2.05-1.86-2.7a1.27,1.27,0,0,1,.26-2c1.06-.78,2.31-.64,3.55-.74.52,0,.79.06.61-.47s-1-1.12-1.36-1.62c-2.06-2.67-.82-6.06.5-8.76C142.6,144.21,140.75,139.06,136.11,138.72Z"/><path class="cls-2" d="M147.64,69A40.24,40.24,0,0,0,152,70.71c3.66,1.34,7.53,2.52,11.46,2.4,7.32-.21,11.95-5.41,15.91-10.91l-1.06-.46,1.71-.45-.65.91c6.84,2.85,14.74,3.72,21.73.86,6.1-2.49,11.29-7.71,12.82-14.24,1.07-4.55.19-9-1.13-13.34A1.14,1.14,0,0,1,211.9,37c1.06,3.65,1.72,6.95.91,11-1.36,6.81-7,12.34-13.61,14.48s-14,1.15-20.28-1.77c-3,4.22-6.25,8.67-11.11,10.41-5.57,2-11.68-.1-17.21-2.21a12.35,12.35,0,0,1-5.1-3c-1.72-1.93-2.07-4.75-1.75-7.31s1.2-5,1.64-7.57a3,3,0,0,0-.08-1.7A4.16,4.16,0,0,0,144,48.06a6.15,6.15,0,0,1,2.75-10.83,3.87,3.87,0,0,0,2-.65c.73-.67.6-1.82.48-2.8-.37-3.16,4.24-13.82,10.14-19.12,9.81-8.81,28.31-7.68,39.6,1,7.72,5.92,10.74,14.33,12.19,19a1.23,1.23,0,0,1,1.56.83,49.67,49.67,0,0,0-5.26-12.23A32.61,32.61,0,0,0,194.6,11.42c-9.61-4.84-22.2-5.93-31.86-.62-4.71,2.58-8.09,6.85-10.69,11.46-2.05,3.63-4.22,7.92-4,12.19.06.89,0,1.25-.92,1.45a12.31,12.31,0,0,0-1.72.41A7.55,7.55,0,0,0,142,39a7.49,7.49,0,0,0,.66,9.5c.49.51,1.5.95,1.62,1.71a8,8,0,0,1-.47,2.54c-.23,1-.49,1.92-.72,2.88-.64,2.78-1,5.75,0,8.48.36.31.7.62,1,1C145.27,66.28,146.4,67.68,147.64,69Z"/><path class="cls-2" d="M211.21,34.65c.13.42.25.81.35,1.16s.23.77.34,1.15a1.14,1.14,0,0,0,.87-1.48A1.23,1.23,0,0,0,211.21,34.65Z"/><path class="cls-2" d="M178.29,61.74l1.06.46.65-.91Z"/><path class="cls-2" d="M211.21,34.65a1.15,1.15,0,0,0-.85,1.49,1.2,1.2,0,0,0,1.54.82c-.11-.38-.22-.76-.34-1.15S211.34,35.07,211.21,34.65Z"/><path class="cls-2" d="M210.36,36.14c1.31,4.37,2.22,8.76.79,13.24a18.14,18.14,0,0,1-6.71,9c-7.29,5.25-17,4.79-24.89,1.2a1.3,1.3,0,0,0-1.71.45c-1.08,1.53-2.23,3.12-3.49,4.58a1.39,1.39,0,0,1-1.4,1.51,13.83,13.83,0,0,1-8.62,4.44,24.45,24.45,0,0,1-9.93-1.64c-2.6-.88-6.16-1.73-8-3.9-1.7-2-1.67-4.73-1.24-7.23h-.07c-1.54-.38-.91-2.74.62-2.42.72-2.53,2-5.84-.19-7.73a6.27,6.27,0,0,1-2.25-2.93,4.75,4.75,0,0,1,.55-4.05,5.08,5.08,0,0,1,3-2.14c1.23-.31,2.54-.35,3.3-1.54,1-1.5.25-3.47.64-5.15a28.07,28.07,0,0,1,2.2-5.87c2.11-4.33,4.9-8.77,8.88-11.62,8.23-5.89,19.83-5.52,28.9-1.94a30.32,30.32,0,0,1,14.06,11.23,46,46,0,0,1,5.59,12.52,1.15,1.15,0,0,1,.85-1.49c-1.45-4.66-4.47-13.07-12.19-19-11.29-8.68-29.79-9.81-39.6-1-5.9,5.3-10.51,16-10.14,19.12.12,1,.25,2.13-.48,2.8a3.87,3.87,0,0,1-2,.65A6.15,6.15,0,0,0,144,48.06a4.16,4.16,0,0,1,1.27,1.27,3,3,0,0,1,.08,1.7c-.44,2.54-1.33,5-1.64,7.57s0,5.38,1.75,7.31a12.35,12.35,0,0,0,5.1,3c5.53,2.11,11.64,4.2,17.21,2.21,4.86-1.74,8.14-6.19,11.11-10.41,6.31,2.92,13.67,3.9,20.28,1.77S211.45,54.76,212.81,48c.81-4,.15-7.34-.91-11A1.2,1.2,0,0,1,210.36,36.14Z"/><path class="cls-2" d="M156.26,46.76l0,0Z"/><path class="cls-2" d="M156.14,46.65h0s0,0,0,0h0l0,0Z"/><path class="cls-2" d="M156.11,46.67h0l0,0Z"/><path class="cls-2" d="M158,49.46c0-.05,0,0,0,0S158.05,49.5,158,49.46Z"/><path class="cls-2" d="M160,47.78a8.58,8.58,0,0,0-2.07-2.87,2.91,2.91,0,0,0-1.94-.75,2.75,2.75,0,0,0-1.92,1c-.86,1-1.69,1.94-2.53,2.91a1.25,1.25,0,0,0,1.77,1.77c.72-.83,1.44-1.67,2.17-2.5.17-.19.33-.4.51-.58a1.56,1.56,0,0,1,.12-.11h0l-.11,0h0l.15,0h0s0,0,0,0h0l0,0h0l.18.12,0,0,0,0,.22.21a3.22,3.22,0,0,1,.24.28l.08.09c-.06-.07-.06-.07,0,0s.27.38.39.57a9.42,9.42,0,0,1,.73,1.32,2.16,2.16,0,0,1,.09.2s0-.06,0,0,0,0,0,0l0,.08c0,.05,0,.11.07.17.08.22.15.43.22.66a12.31,12.31,0,0,1,.33,1.46,1.25,1.25,0,0,0,1.54.87,1.27,1.27,0,0,0,.87-1.53A12,12,0,0,0,160,47.78Zm-2.36-1.38c-.46-.58-1.16-1.16-1.87-.94a2.11,2.11,0,0,0-.9.7L152.42,49l2.45-2.82a2.11,2.11,0,0,1,.9-.7c.71-.22,1.41.36,1.87.94a10.89,10.89,0,0,1,2.26,5.11A10.89,10.89,0,0,0,157.64,46.4Z"/><path class="cls-2" d="M156.13,46.65l.06,0-.15,0,.06,0h0s0,0,0,0Z"/><path class="cls-2" d="M156,46.64l.11,0-.07,0Z"/><polygon class="cls-2" points="156.19 46.62 156.19 46.62 156.19 46.62 156.19 46.62"/><path class="cls-2" d="M156,46.63h0Z"/><path class="cls-2" d="M156.11,46.67h0Z"/><path class="cls-2" d="M156,46.64h0l.07,0Z"/><path class="cls-2" d="M156.13,46.65h0S156.16,46.63,156.13,46.65Z"/><path class="cls-2" d="M156.15,46.65s0,0,0,0l0,0Z"/><polygon class="cls-2" points="156.14 46.66 156.15 46.65 156.14 46.65 156.14 46.66"/><path class="cls-2" d="M156.13,46.65s0,0,0,0h0l0,0h0Z"/><path class="cls-2" d="M152.05,58.52c-.06.18-.11.37-.16.56s-.09.44-.13.67c1.88.63,3.75,1.29,5.61,2l.56-1.13C156,59.88,154,59.18,152.05,58.52Z"/><path class="cls-2" d="M160.3,61.42c-.18.38-.37.75-.56,1.13,1.44.5,2.89,1,4.34,1.45.16-.39.33-.77.52-1.14C163.16,62.41,161.73,61.92,160.3,61.42Z"/><path class="cls-2" d="M149.68,57.76c-1.42-.44-2.84-.84-4.27-1.19,1.43.35,2.85.75,4.27,1.19a9.68,9.68,0,0,1,.44-1.17c-1.45-.45-2.91-.86-4.38-1.22h-.05c-.09.31-.17.61-.24.89-.11.49-.22,1-.31,1.54,1.43.35,2.84.76,4.24,1.19A10.34,10.34,0,0,1,149.68,57.76Z"/><path class="cls-2" d="M152.31,57.79l-.06.13-.15.41c0,.06,0,.13,0,.19,2,.66,3.93,1.36,5.88,2.06l.56-1.12c-2-.71-4-1.42-6-2.09l-.18.33Z"/><path class="cls-2" d="M164.6,62.86a11.2,11.2,0,0,1,.62-1.13c-1.46-.45-2.91-.93-4.36-1.44-.19.38-.37.76-.56,1.13C161.73,61.92,163.16,62.41,164.6,62.86Z"/><path class="cls-2" d="M173.45,63.7a53.34,53.34,0,0,1-5.74-1.25h0c-.24.36-.45.74-.66,1.11a52.3,52.3,0,0,0,6.08,1.34A52.3,52.3,0,0,1,167,63.57c0,.1-.11.18-.16.28s-.25.51-.37.77v0a.14.14,0,0,0,0,.06,53.8,53.8,0,0,0,6.31,1.41H173c.49-.48,1-1,1.4-1.51A1,1,0,0,0,173.45,63.7Z"/><path class="cls-2" d="M173,66.12a1.39,1.39,0,0,0,1.4-1.51C173.9,65.13,173.44,65.64,173,66.12Z"/><path class="cls-2" d="M145.69,55.36c-1.53-.32-2.16,2-.62,2.42h.07c.09-.53.2-1,.31-1.54C145.52,56,145.6,55.67,145.69,55.36Z"/><path class="cls-2" d="M150.52,62.28a9.23,9.23,0,0,1,0-2.92L149.38,59a11.33,11.33,0,0,0-.06,3.63,1.24,1.24,0,0,0,1.53.87,1.29,1.29,0,0,0,.88-1.54c0,.3,0-.16,0-.21a3.4,3.4,0,0,1,0-.45c0-.26,0-.52,0-.77l0-.45a1.23,1.23,0,0,0,0-.19c0,.1,0,.1,0,0v0a.29.29,0,0,1,0-.09c-.4-.14-.79-.27-1.19-.39A9.23,9.23,0,0,0,150.52,62.28Z"/><path class="cls-2" d="M152.09,55.63a8.46,8.46,0,0,0-.77,1.34l1.2.4a9.47,9.47,0,0,1,.65-1.11,1.25,1.25,0,0,0-.45-1.71A1.27,1.27,0,0,0,151,55a10.38,10.38,0,0,0-.89,1.59l1.2.38A8.46,8.46,0,0,1,152.09,55.63Z"/><path class="cls-2" d="M151.73,59.87v0C151.72,60,151.72,60,151.73,59.87Z"/><path class="cls-2" d="M150.87,58.13l1.18.39c0-.06,0-.13,0-.19l.15-.41.06-.13s0,0,0-.08l0,.08,0-.09.18-.33-1.2-.4A8.18,8.18,0,0,0,150.87,58.13Z"/><path class="cls-2" d="M150.87,58.13a8.18,8.18,0,0,1,.45-1.16l-1.2-.38a9.68,9.68,0,0,0-.44,1.17Z"/><path class="cls-2" d="M150.87,58.13l-1.19-.37a10.34,10.34,0,0,0-.3,1.22l1.19.38A8.49,8.49,0,0,1,150.87,58.13Z"/><path class="cls-2" d="M152.31,57.79l0-.08C152.31,57.78,152.3,57.8,152.31,57.79Z"/><path class="cls-2" d="M152.05,58.52l-1.18-.39a8.49,8.49,0,0,0-.3,1.23c.4.12.79.25,1.19.39,0-.23.08-.45.13-.67S152,58.7,152.05,58.52Z"/><path class="cls-2" d="M160.68,57.86l-1,2,1.19.41.9-1.8a1.28,1.28,0,0,0-.45-1.71,1.26,1.26,0,0,0-1.71.45l-1.11,2.23,1.18.42Z"/><path class="cls-2" d="M157.59,64.08c.32-.65.64-1.3,1-1.95l-1.19-.42-.86,1.74a1.25,1.25,0,0,0,2.16,1.27c.36-.73.71-1.45,1.07-2.17l-1.18-.42C158.23,62.78,157.91,63.43,157.59,64.08Z"/><path class="cls-2" d="M159.12,61l-.56,1.12,1.18.42c.19-.38.38-.75.56-1.13Z"/><path class="cls-2" d="M159.12,61c.18-.38.37-.75.55-1.13l-1.18-.42-.56,1.12Z"/><path class="cls-2" d="M159.12,61l1.18.41c.19-.37.37-.75.56-1.13l-1.19-.41C159.49,60.26,159.3,60.63,159.12,61Z"/><path class="cls-2" d="M159.12,61l-1.19-.43-.56,1.13,1.19.42Z"/><path class="cls-2" d="M167.69,60.44a15.49,15.49,0,0,0-1.23,1.66l1.25.35.22-.32.12-.16,0,0s0,0,0,0,0,0,0,0a.4.4,0,0,1,.07-.09l.12-.16.3-.35a1.25,1.25,0,0,0-1.77-1.76,14.74,14.74,0,0,0-1.59,2.17l1.24.37A15.49,15.49,0,0,1,167.69,60.44Z"/><path class="cls-2" d="M164.63,66.37a14.31,14.31,0,0,1,.66-2L164.08,64a14.24,14.24,0,0,0-.65,2,1.25,1.25,0,1,0,2.41.67,12,12,0,0,1,.46-1.55c0-.12.09-.25.14-.37a.36.36,0,0,1,0-.09l-1.19-.34A14.31,14.31,0,0,0,164.63,66.37Z"/><path class="cls-2" d="M168.1,61.9c0,.06,0,.05,0,0S168.16,61.81,168.1,61.9Z"/><path class="cls-2" d="M165.8,63.22l-1.2-.36c-.19.37-.36.75-.52,1.14l1.21.36C165.45,64,165.61,63.59,165.8,63.22Z"/><path class="cls-2" d="M166.5,64.64s0,0,0,0S166.46,64.73,166.5,64.64Z"/><path class="cls-2" d="M165.29,64.36l1.19.34a.14.14,0,0,1,0-.06c0,.09,0,0,0,0s0,0,0,0v0c.12-.26.24-.52.37-.77s.11-.18.16-.28l-1.24-.35C165.61,63.59,165.45,64,165.29,64.36Z"/><path class="cls-2" d="M165.8,63.22l1.24.35c.21-.37.42-.75.66-1.11h0l-1.25-.35C166.23,62.47,166,62.84,165.8,63.22Z"/><path class="cls-2" d="M165.8,63.22c.2-.38.43-.75.66-1.12l-1.24-.37a11.2,11.2,0,0,0-.62,1.13Z"/><path class="cls-2" d="M166.25,45.69a1.16,1.16,0,0,0,1.05-.21l-.33,0c-1.08-.06-1.37-.82-1.36-1.81,0,0,0-.07,0-.1-.08.19-.17.37-.24.56A1.26,1.26,0,0,0,166.25,45.69Z"/><path class="cls-2" d="M170.53,39.26h0c0,.09,0,.21,0,.22a2.61,2.61,0,0,1,0,.62l.14-.18C170.89,39.6,171.59,39.11,170.53,39.26Z"/><path class="cls-2" d="M174.62,35.38a7.75,7.75,0,0,0-6.17-.58,8,8,0,0,0-4.25,4.09,10.14,10.14,0,0,0-.93,6.31A3.8,3.8,0,0,0,167,48c4.34.11,5.72-4.49,6-8a3.13,3.13,0,0,0-.81-2.61,2.15,2.15,0,0,0-3.07.45,19.25,19.25,0,0,0-3.5,5.75s0,.06,0,.1c0,1,.28,1.75,1.36,1.81l.33,0a1.42,1.42,0,0,0,.49-.66,18.72,18.72,0,0,1,2.17-4c.17-.24.35-.47.53-.69a2.61,2.61,0,0,0,0-.62s0-.13,0-.22h0v0c-.07-.07,0-.35,0,0h0c0-.11,0-.08,0,0h0c1.06-.15.36.34.1.65l-.14.18c0,.12,0,.24,0,.36-.25,1.88-.83,4.88-3.15,5a1.16,1.16,0,0,1-1.05.21,1.26,1.26,0,0,1-.87-1.54c.07-.19.16-.37.24-.56a8.79,8.79,0,0,1,1.09-4.11,5.19,5.19,0,0,1,2.82-2.42,5.53,5.53,0,0,1,4.07.59c1.3.62,3,1.29,3.86,2.46s.73,3.2.58,4.71a1.26,1.26,0,0,0,1.25,1.25,1.28,1.28,0,0,0,1.25-1.25c.2-2,.29-4.23-.92-6S176.43,36.2,174.62,35.38Zm4.67,9.44c.18-1.76.32-3.66-.62-5.15a8,8,0,0,0-3.27-2.51,10,10,0,0,0-4.9-1.54A6,6,0,0,0,166,38.21a9.73,9.73,0,0,0-1.65,5,4,4,0,0,0,.34,2.31c1,1.74,3.77,1.51,5.13,0S171.52,42,171.75,40c.09-.77-.09-1.87-.86-1.85a1.36,1.36,0,0,0-.89.57,18.81,18.81,0,0,0-3.41,5.77A18.81,18.81,0,0,1,170,38.72a1.36,1.36,0,0,1,.89-.57c.77,0,1,1.08.86,1.85-.23,2-.53,4.1-1.89,5.57s-4.17,1.69-5.13,0a4,4,0,0,1-.34-2.31,9.73,9.73,0,0,1,1.65-5,6,6,0,0,1,4.46-2.59,10,10,0,0,1,4.9,1.54,8,8,0,0,1,3.27,2.51C179.61,41.16,179.47,43.06,179.29,44.82Z"/><path class="cls-2" d="M170.49,39.27v0h0Z"/><path class="cls-2" d="M151.52,38v0Z"/><path class="cls-2" d="M151.52,38.05h0C151.49,38.09,151.45,38.15,151.52,38.05Z"/><polygon class="cls-2" points="152.36 38.23 152.36 38.22 152.35 38.24 152.35 38.24 152.36 38.23"/><path class="cls-2" d="M152.35,38.24Z"/><path class="cls-2" d="M152.36,38.25v0h0Z"/><path class="cls-2" d="M151.52,38v0S151.46,38.05,151.52,38Z"/><path class="cls-2" d="M154.42,34.9l0,0Z"/><path class="cls-2" d="M154.24,33.53a4.23,4.23,0,0,0-1,.72,7.86,7.86,0,0,0-1.15,1.59c0,.11,0,.22,0,.33v.07h0c0,.08,0,0,0,0v.07c0,.14,0,.28-.08.41a6.94,6.94,0,0,1-.25.81s0,.08-.05.13,0,0,0,0l0,0,0,.07-.15.28h0v0h0c.17,0,.28-.13.48-.09a.67.67,0,0,1,.25.13l0,.06s0-.06,0,0,0,0,0,0a.1.1,0,0,0,0,.06l0,0a.25.25,0,0,1,0,.07v0s0-.14,0,0v0h0a.61.61,0,0,0,0-.11l.06-.17s0,0,0,0,0,0,0,0l0-.07c.24-.48.47-1,.73-1.42,0-.08.09-.15.13-.22a6.44,6.44,0,0,0,0-1.86,6.44,6.44,0,0,1,0,1.86c.09-.14.17-.29.27-.44s.09-.12.13-.19l.05-.06h0s0,0,0,0l0-.06.19-.21.24-.25.18-.15,0,0,0,0,.15-.09c0-.24-.05-.49-.09-.74A1,1,0,0,0,154.24,33.53Z"/><path class="cls-2" d="M155.14,34.47c-.08,0-.06,0,0,0S155.23,34.44,155.14,34.47Z"/><path class="cls-2" d="M153.8,35.54Z"/><path class="cls-2" d="M152.49,37.87l0,.07s0,0,0,0l-.06.17a.61.61,0,0,1,0,.11v0h0a.25.25,0,0,0,0-.07v0l0-.06A.67.67,0,0,0,152,38c-.2,0-.31,0-.48.09h0c-.07.1,0,0,0,0s0,0,0,0h0l.15-.28,0-.07s0-.09.05-.13a6.94,6.94,0,0,0,.25-.81c0-.13,0-.27.08-.41v-.14c0-.11,0-.22,0-.33-.23.42-.45.86-.67,1.29a2.41,2.41,0,0,0-.34,1.24c0,.43.4.87.83.81s.6-.39.76-.71a6.7,6.7,0,0,0,.64-2.24c0,.07-.09.14-.13.22C153,36.91,152.73,37.39,152.49,37.87Z"/><path class="cls-2" d="M152.46,37.94s0,0,0,0Z"/><path class="cls-2" d="M152.33,38.17l0,0a.1.1,0,0,1,0-.06h0Z"/><path class="cls-2" d="M151.72,37.66l0,0C151.72,37.65,151.76,37.56,151.72,37.66Z"/><path class="cls-2" d="M152.12,34.78c0-.07,0-.05,0,0S152.13,34.86,152.12,34.78Z"/><path class="cls-2" d="M154.24,33.53a1.29,1.29,0,0,0-1.26-.36,1.27,1.27,0,0,0-.87,1.53v.07s0-.06,0,0,0,0,0,0,0,.12,0,.14,0,.24,0,.36a5.43,5.43,0,0,1,0,.57,7.86,7.86,0,0,1,1.15-1.59A4.23,4.23,0,0,1,154.24,33.53Z"/><path class="cls-2" d="M152.11,36.24h0S152.1,36.32,152.11,36.24Z"/><path class="cls-2" d="M152.33,38.16v0Z"/><path class="cls-2" d="M152.36,38.22v0C152.39,38.08,152.36,38.17,152.36,38.22Z"/><path class="cls-2" d="M152.33,38.16h0Z"/><path class="cls-2" d="M152.34,38.16s0,0,0,0,0,0,0,0v0Z"/><path class="cls-2" d="M156.18,34.36l.08,0h0C156.39,34.42,156.2,34.37,156.18,34.36Z"/><path class="cls-2" d="M156.91,35.2h0v0Z"/><path class="cls-2" d="M156.9,35.14a.18.18,0,0,0,0,.06h0A.07.07,0,0,1,156.9,35.14Z"/><path class="cls-2" d="M156.91,35.19h0v0h0Z"/><path class="cls-2" d="M155.66,34.33c-.12,0,0,0,0,0Z"/><path class="cls-2" d="M156.91,35.2c0,.08,0,0,0,0v0Z"/><path class="cls-2" d="M153.48,39.57a5.91,5.91,0,0,0,1-2.53,8.62,8.62,0,0,0,.11-2.26l-.15.09-.18.15-.24.25-.19.21,0,.06-.05.06c0,.07-.09.13-.13.19s-.18.3-.27.44a6.7,6.7,0,0,1-.64,2.24c-.16.32-.4.67-.76.71s-.8-.38-.83-.81a2.41,2.41,0,0,1,.34-1.24c.22-.43.44-.87.67-1.29a5.43,5.43,0,0,0,0-.57c0-.12,0-.24,0-.36s0-.1,0-.14V34.7a1.27,1.27,0,0,1,.87-1.53,1.29,1.29,0,0,1,1.26.36,3.06,3.06,0,0,1,2.12-.4,2.16,2.16,0,0,1,1.72,2.51,2.16,2.16,0,0,0-1.72-2.51,3.06,3.06,0,0,0-2.12.4,1,1,0,0,1,.28.51c0,.25.07.5.09.74l.47-.29h0s-.06,0,0,0,0,0,0,0l.12,0,.32-.09.12,0c-.05,0-.14,0,0,0h.05c.06,0,.29,0,.3,0l-.09,0,.09,0,.25.06-.08,0s.21.06.08,0h0l.13.07.13.08h0c0-.06.16.09,0,0h0l.2.21c-.1-.18,0,0,0,0l0,0h0a1.4,1.4,0,0,1,.1.16s0,0,0,0,0,0,0,0h0a1.09,1.09,0,0,0,0,.14.25.25,0,0,0,0,.07h0c0-.08,0,0,0,0h0s0,.11,0,0h0v0h0v0l0,.11a1.27,1.27,0,0,0,.87,1.54,1.28,1.28,0,0,0,1.54-.87A3.4,3.4,0,0,0,157.06,32a4.55,4.55,0,0,0-4.5,1.18,7.79,7.79,0,0,0-1.47,1.91A13,13,0,0,0,150,37.35a2.35,2.35,0,0,0,.8,2.75A1.93,1.93,0,0,0,153.48,39.57Z"/><path class="cls-2" d="M156.91,35.17h0c0-.06,0-.11,0,0h0a.07.07,0,0,0,0,0Z"/><path class="cls-2" d="M156.91,35.17Z"/><path class="cls-2" d="M156.52,34.55c.16.09,0-.06,0,0Z"/><path class="cls-2" d="M155.92,34.32l.09,0Z"/><path class="cls-2" d="M156.85,35c0-.07,0-.05,0,0h0S156.92,35.1,156.85,35Z"/><path class="cls-2" d="M156.73,34.77l0,0S156.63,34.59,156.73,34.77Z"/><path class="cls-2" d="M138.27,75.72l.07-.09a5,5,0,0,1,1.5-1.07l-.21,0a1.66,1.66,0,0,0-1.72.78l0,.09C138.46,75.21,138.3,75.39,138.27,75.72Z"/><path class="cls-2" d="M137.14,83.27a10.55,10.55,0,0,0,2.6,4,8.1,8.1,0,0,0,3.17.77c-3.65-1.72-6-6.28-4.79-10.2a1.3,1.3,0,0,1-1.37.24A9.1,9.1,0,0,0,137.14,83.27Z"/><path class="cls-2" d="M154.79,128.76l0,0a31,31,0,0,1,2.42,2.84c.88.57,1.76,1.15,2.65,1.69-.56-.9-1.16-1.78-1.81-2.63A35.24,35.24,0,0,0,154.79,128.76Z"/><path class="cls-2" d="M163.93,107.56v0c1.32.52,2.62,1.08,3.9,1.7l3.55.44c-1.07-.59-2.15-1.14-3.26-1.66Z"/><path class="cls-2" d="M139.85,75.44a3.18,3.18,0,0,1,.15.43,1.83,1.83,0,0,1,.24-.13A1.22,1.22,0,0,0,139.85,75.44Z"/><path class="cls-2" d="M139.93,98.93l.12-.3a8.89,8.89,0,0,0-1.74-1.15c-2.4-.42-4.73-1.34-7.16-1.53,2.16,1.18,4.73,1.58,6.87,2.78A12.25,12.25,0,0,0,139.93,98.93Z"/><path class="cls-2" d="M178.17,115.64c2.63,2,5.21,5.92,2.87,8.27-1.27,1.27-3.34,1.2-5.11.89a31.16,31.16,0,0,1-3-.7,10.17,10.17,0,0,1,1.63,1.78,10,10,0,0,0,5.83-.07c2.93-1.19,3.38-4.35,2.13-7-1.42-3-4.3-4.88-7-6.65-1.34-.89-2.74-1.7-4.15-2.47l-3.55-.44A57.42,57.42,0,0,1,178.17,115.64Z"/><path class="cls-2" d="M132.13,95.06c-2.79-1.31-5.28-4.7-3.64-7.31s5.52-1.92,8.25-.61c1.86.9,3.93,2,5.9,2.1a9.73,9.73,0,0,1-2.9-2,38.61,38.61,0,0,0-5.12-2.21c-2.75-.66-6.07-.33-7.44,2.5s.64,6.06,3,7.76a8.8,8.8,0,0,0,1,.63c2.43.19,4.76,1.11,7.16,1.53C136.38,96.5,134.12,96,132.13,95.06Z"/><path class="cls-2" d="M145,88.86l0-.2a7.71,7.71,0,0,1-2.05-.62,8.1,8.1,0,0,1-3.17-.77,9.73,9.73,0,0,0,2.9,2A4.94,4.94,0,0,0,145,88.86Z"/><path class="cls-2" d="M123,121.59c-3.31-.86-6.27-4.13-5.52-7.47s4.91-5.07,8.47-5.07c2.5,0,5,.48,7.49.5-2.26-.51-4.62-.68-6.71-1.71a15,15,0,0,0-3.41.22c-3,.58-6.18,2.4-7,5.57-.9,3.45,1.4,6.83,4.39,8.39a11.17,11.17,0,0,0,5.69,1.16,30,30,0,0,0,3.61-1.73A15.12,15.12,0,0,1,123,121.59Z"/><path class="cls-2" d="M136.11,109.35l0-.27a15.07,15.07,0,0,0-2.64-.77c-2.25,0-4.51-.39-6.76-.47,2.09,1,4.45,1.2,6.71,1.71A14.72,14.72,0,0,0,136.11,109.35Z"/><path class="cls-2" d="M140.05,98.63l-.12.3.51,0C140.32,98.84,140.18,98.74,140.05,98.63Z"/><path class="cls-2" d="M138.66,76.53l-.34-.44a.84.84,0,0,1,0-.37l-.12.16a4.29,4.29,0,0,1,.16.71A1.41,1.41,0,0,0,138.66,76.53Z"/><path class="cls-2" d="M180.48,88c-.34-2.21-2.67-3.3-4.53-4-4.07-1.61-8.6-1.41-12.9-1.48s-8.91-.39-12.33-3.41c-1.93-1.7-3.62-3.75-6.12-4.62a6.36,6.36,0,0,0-4.76.12,1.3,1.3,0,0,1,.9,1,6,6,0,0,1,4.9.78c2,1.25,3.43,3.18,5.32,4.55,7.38,5.36,18.55.61,26.45,5.17a3.59,3.59,0,0,1,1.76,1.8c.57,1.71-1.17,3.29-2.79,4.1a21.52,21.52,0,0,1-8.84,2.2l2.81,1a20.18,20.18,0,0,0,7-2.29,7.27,7.27,0,0,0,2.54-2.3,1.25,1.25,0,0,1,.58-1.51A3.54,3.54,0,0,0,180.48,88Z"/><path class="cls-2" d="M132.9,120.91l-.08-.13c-.92.24-1.85.48-2.79.67a30,30,0,0,1-3.61,1.73,23.42,23.42,0,0,0,4.07-.55A12.43,12.43,0,0,0,132.9,120.91Z"/><path class="cls-2" d="M162.88,93.77h0l4.41,1.58a22.27,22.27,0,0,0,3.06-.23l-2.81-1A21.44,21.44,0,0,1,162.88,93.77Z"/><path class="cls-2" d="M179.54,99.75c2,.71,4.22,1.68,4.81,3.7s-1.06,4.38-3.13,5.18-4.37.54-6.57.27l-6.54-.82c1.11.52,2.19,1.07,3.26,1.66l.31,0a38.85,38.85,0,0,0,7,.62c3.48-.2,7.55-2.59,7-6.61-.51-3.86-5.05-5-8.12-6.07l-7.21-2.6a22.27,22.27,0,0,1-3.06.23Z"/><path class="cls-2" d="M162.69,143.67a10.2,10.2,0,0,1-.09,5.82c-.71,1.83-2.59,3.34-4.54,3a5.94,5.94,0,0,1-3.59-2.75c-2.33-3.28-3.7-7.14-5.64-10.68s-4.73-6.91-8.6-8.05c-4.73-1.4-9.82,1-13.56,4.17-1.15,1-2.33,2.13-3.83,2.34-3,.44-5.27-3.47-4.33-6.4s3.79-4.78,6.59-6.05c1.8-.81,3.69-1.51,5.39-2.47a23.42,23.42,0,0,1-4.07.55,33.67,33.67,0,0,0-4.11,2c-2.71,1.61-5.4,4.29-5.26,7.69.11,2.81,2.13,5.91,5.19,6a6.81,6.81,0,0,0,4.44-2,27.53,27.53,0,0,1,4.63-3.32c3.4-1.81,7.43-2.36,10.84-.27,3.16,2,5.1,5.33,6.69,8.58,1.69,3.45,3.14,7.63,6,10.31a5.28,5.28,0,0,0,8.34-1.1c2.32-3.58.69-8.8-.73-12.42a32.38,32.38,0,0,0-2.65-5.3c-.89-.54-1.77-1.12-2.65-1.69A30.71,30.71,0,0,1,162.69,143.67Z"/><path class="cls-2" d="M132.82,120.78l.08.13.25-.21Z"/><path class="cls-2" d="M154.75,128.8l0,0-.15-.08Z"/><path class="cls-2" d="M162.17,118.82l0,0-.13-.09Z"/><path class="cls-2" d="M136.15,109.08l0,.27.5-.08Z"/><path class="cls-2" d="M128.76,107.32c-2.59-.79-5.2-2.89-5-5.58.21-3.2,4.11-4.84,7.3-4.53,2.37.23,4.65,1.11,7,1.52-2.14-1.2-4.71-1.6-6.87-2.78a12.71,12.71,0,0,0-1.38,0c-2.66.16-5.61,1.34-6.8,3.89-1.35,2.86.31,5.77,2.72,7.41a7.07,7.07,0,0,0,1.06.61c2.25.08,4.51.47,6.76.47C131.93,108,130.3,107.79,128.76,107.32Z"/><path class="cls-2" d="M145,88.66l0,.2.31-.14Z"/><path class="cls-2" d="M174.51,129.4c.1,4.09-5.23,6.3-9.18,5.21-2.68-.73-5-2.36-7.32-3.91.65.85,1.25,1.73,1.81,2.63,3.38,2.08,6.91,3.7,11,2.24,2.32-.83,4.45-2.57,4.87-5.11a6.13,6.13,0,0,0-1.15-4.58c-.74-.17-1.45-.37-2.14-.59A5.85,5.85,0,0,1,174.51,129.4Z"/><path class="cls-2" d="M172.89,124.1a31.84,31.84,0,0,1-10.7-5.31l0,0c1.7,2.21,4.54,3.17,7.06,4.39a13.44,13.44,0,0,1,3.15,2.08c.69.22,1.4.42,2.14.59A10.17,10.17,0,0,0,172.89,124.1Z"/><path class="cls-2" d="M163.92,107.6v0l-.17,0Z"/><path class="cls-2" d="M138.32,76.09l.34.44a1.9,1.9,0,0,0,.32-.16c-.63-.51,1.25-1,.29-.21a3.39,3.39,0,0,1-.29.21,1,1,0,0,0,.24.15,3.42,3.42,0,0,1,.78-.65,3.18,3.18,0,0,0-.15-.43,1.22,1.22,0,0,1,.39.3,3.78,3.78,0,0,1,.5-.22,1.3,1.3,0,0,0-.9-1,5,5,0,0,0-1.5,1.07l-.07.09A.84.84,0,0,0,138.32,76.09Z"/><path class="cls-2" d="M138,75.38a5.21,5.21,0,0,1,.2.5l.12-.16C138.3,75.39,138.46,75.21,138,75.38Z"/><path class="cls-2" d="M138.81,77.68l.53-.7a1,1,0,0,1-.44-.14l-.24-.31a1.41,1.41,0,0,1-.35.06c0,.13.06.25.08.39a1.17,1.17,0,0,1,0,.38A1.6,1.6,0,0,0,138.81,77.68Z"/><path class="cls-2" d="M138.88,77.71l.08,0h0Z"/><path class="cls-2" d="M138.36,77.36a.31.31,0,0,1,0,.08l.25.16.21.08h0A1.6,1.6,0,0,1,138.36,77.36Z"/><path class="cls-2" d="M145,88.86a4.94,4.94,0,0,1-2.37.38,9.24,9.24,0,0,0,2.68.73C145.22,89.6,145.11,89.23,145,88.86Z"/><path class="cls-2" d="M139,77.73h0a1.06,1.06,0,0,0,.47,0,.11.11,0,0,0,0,0A1.35,1.35,0,0,1,139,77.73Z"/><path class="cls-2" d="M138.81,77.68h0l.08,0Z"/><path class="cls-2" d="M162.55,95l.33-1.2h0c.12-.41.23-.81.34-1.21A1.25,1.25,0,0,0,162.55,95Z"/><path class="cls-2" d="M140.42,76.78a1.51,1.51,0,0,0,.18-.26,1.43,1.43,0,0,0,.14-1,3.78,3.78,0,0,0-.5.22A1.09,1.09,0,0,1,140.42,76.78Z"/><path class="cls-2" d="M145,88.66l.36.06-.31.14c.1.37.21.74.31,1.11a9.24,9.24,0,0,1-2.68-.73c-2-.14-4-1.2-5.9-2.1-2.73-1.31-6.64-2-8.25.61s.85,6,3.64,7.31c2,.94,4.25,1.44,6.18,2.42a12.73,12.73,0,0,0,2.13.23l-.39.92c.13.11.27.21.39.33l-.51,0-.38.91A8.17,8.17,0,0,0,138,98.73c-2.34-.41-4.62-1.29-7-1.52-3.19-.31-7.09,1.33-7.3,4.53-.17,2.69,2.44,4.79,5,5.58,1.54.47,3.17.67,4.75,1a13.66,13.66,0,0,0,2.77-.25c0,.34-.09.68-.13,1l.46.19-.5.08-.13,1a13.93,13.93,0,0,0-2.52-.8c-2.48,0-5-.5-7.49-.5-3.56,0-7.68,1.6-8.47,5.07s2.21,6.61,5.52,7.47a15.12,15.12,0,0,0,7-.14,11.74,11.74,0,0,0,2.23-1.64l.56,1,.33-.08-.25.21.58,1c-1,.26-2,.51-3,.73-1.7,1-3.59,1.66-5.39,2.47-2.8,1.27-5.65,3.12-6.59,6.05s1.28,6.84,4.33,6.4c1.5-.21,2.68-1.34,3.83-2.34,3.74-3.22,8.83-5.57,13.56-4.17,3.87,1.14,6.66,4.52,8.6,8.05s3.31,7.4,5.64,10.68a5.94,5.94,0,0,0,3.59,2.75c1.95.31,3.83-1.2,4.54-3a10.2,10.2,0,0,0,.09-5.82,30.71,30.71,0,0,0-5.52-12c-1-.68-2.1-1.33-3.16-1.88l.74-1-.11-.12.15.08.74-1a32.45,32.45,0,0,1,2.48,2.9c2.34,1.55,4.64,3.18,7.32,3.91,3.95,1.09,9.28-1.12,9.18-5.21a5.85,5.85,0,0,0-2.13-4.11c-.53-.16-1-.33-1.51-.49a33.49,33.49,0,0,1-9.44-5l.74-1-.11-.12.13.09.75-1c2.26,2.89,6.08,3.48,9,5.51.34.24.66.5,1,.77a31.16,31.16,0,0,0,3,.7c1.77.31,3.84.38,5.11-.89,2.34-2.35-.24-6.25-2.87-8.27a57.42,57.42,0,0,0-10.35-6.34l-4.06-.51c.05-.4.11-.79.16-1.19l-.16-.06.17,0c0-.41.11-.82.16-1.23,1.37.53,2.7,1.13,4,1.75l6.54.82c2.2.27,4.51.54,6.57-.27s3.75-3,3.13-5.18-2.83-3-4.81-3.7l-12.25-4.4a24.93,24.93,0,0,1-4.74-.38l11.57,4.16c1.85.67,3.72,1.31,5.56,2,1.2.46,2.78,1.1,3.35,2.35s-.36,2.84-1.5,3.59c-1.59,1.06-3.73.91-5.55.73-4.08-.4-8.15-1-12.22-1.51-1.51-.19-1.53,2-.33,2.45a57.08,57.08,0,0,1,10.45,5.39c2.5,1.62,6.45,3.92,6.81,7.25.44,3.94-6.3,1.89-8.15,1.33a31.41,31.41,0,0,1-9.85-5.09c-1.23-.93-2.3,1-1.51,2,2.13,2.74,5.49,3.56,8.38,5.22,2.33,1.34,5.16,4.24,2.83,6.89-1.81,2.06-5.06,2.32-7.5,1.48-3.52-1.21-6.34-3.87-9.61-5.57a1.26,1.26,0,0,0-1.52,2,30.18,30.18,0,0,1,5.79,8.51c1.33,2.94,2.89,7,2.1,10.28-.33,1.35-1.39,2.84-2.91,2.94-1.81.13-3.07-1.91-3.91-3.23-1.85-2.93-3.08-6.18-4.71-9.23-3-5.63-8-10.37-14.88-9.28a18.94,18.94,0,0,0-8.52,4c-1.16.91-2.35,2.39-3.85,2.71a2.72,2.72,0,0,1-2.91-1.82c-1.59-3.41,1.74-6.18,4.43-7.61,3.27-1.74,6.88-2.66,9.64-5.26a1.26,1.26,0,0,0-1.22-2.09c-3.38.89-7.5,2.09-10.82.38-2.35-1.22-4.4-4.12-2.75-6.7,1.37-2.14,4.35-2.86,6.73-2.87,3.7,0,7.29.91,11,.17a1.26,1.26,0,0,0,.3-2.28c-2.73-1.21-5.71-1.19-8.49-2.19-2.06-.74-4.88-3-3.36-5.43,1.17-1.87,3.89-2.33,5.9-2.08,3.1.38,6,1.69,9.15,1.72a1.27,1.27,0,0,0,.88-2.14c-2.34-2.17-5.38-2.69-8.21-3.93-1.88-.83-5.46-3.85-3.27-6.09,1.79-1.83,5.16-.36,7,.54,2.89,1.38,6,2.69,9.09,1.21,1.25-.6.45-2.2-.63-2.33A7.76,7.76,0,0,1,139.05,80a5.75,5.75,0,0,1,.22-1.7c0-.17.11-.35.16-.53a1.06,1.06,0,0,1-.47,0l-.05,0c-.29.09-.72.3-.13,0l0,0-.21-.08-.25-.16a.92.92,0,0,1-.22.4c-1.18,3.92,1.14,8.48,4.79,10.2a4.12,4.12,0,0,0,1.77-.4C144.78,88,144.87,88.32,145,88.66Z"/><path class="cls-2" d="M144.68,87.64a4.12,4.12,0,0,1-1.77.4,7.71,7.71,0,0,0,2.05.62C144.87,88.32,144.78,88,144.68,87.64Z"/><path class="cls-2" d="M138.8,77.68l0,0c-.59.34-.16.13.13,0l.05,0-.08,0Z"/><path class="cls-2" d="M140.6,76.52a1.51,1.51,0,0,1-.18.26,1.4,1.4,0,0,1-1,.94.11.11,0,0,1,0,0,1.16,1.16,0,0,0,.68-.37c1.21-1.29,3.19-1,4.61-.19,1.75,1,3,2.61,4.55,3.89A17.12,17.12,0,0,0,159,84.78c3.59.35,7.21.09,10.81.39a19.06,19.06,0,0,1,5.33,1.13,8.08,8.08,0,0,1,2.32,1.23c.9.8.55,1.61-.23,2.34-1.66,1.53-4.31,2.22-6.48,2.65a20.18,20.18,0,0,1-7.51,0l4.32,1.56a21.52,21.52,0,0,0,8.84-2.2c1.62-.81,3.36-2.39,2.79-4.1a3.59,3.59,0,0,0-1.76-1.8c-7.9-4.56-19.07.19-26.45-5.17-1.89-1.37-3.34-3.3-5.32-4.55a6,6,0,0,0-4.9-.78A1.43,1.43,0,0,1,140.6,76.52Z"/><path class="cls-2" d="M162.88,93.77a21.44,21.44,0,0,0,4.66.35l-4.32-1.56C163.11,93,163,93.36,162.88,93.77Z"/><path class="cls-2" d="M139.52,77.5l0,0a1.42,1.42,0,0,1,0,.2,1.4,1.4,0,0,0,1-.94A3.21,3.21,0,0,1,139.52,77.5Z"/><path class="cls-2" d="M167.82,109.3c-1.28-.62-2.58-1.18-3.9-1.7,0,.4-.11.79-.16,1.19Z"/><path class="cls-2" d="M162.94,117.82l-.75,1a31.84,31.84,0,0,0,10.7,5.31c-.32-.27-.64-.53-1-.77C169,121.3,165.2,120.71,162.94,117.82Z"/><path class="cls-2" d="M139.93,98.93a12.25,12.25,0,0,1-1.91-.2,8.17,8.17,0,0,1,1.53,1.11Z"/><path class="cls-2" d="M138.31,97.48a8.89,8.89,0,0,1,1.74,1.15l.39-.92A12.73,12.73,0,0,1,138.31,97.48Z"/><path class="cls-2" d="M139,76.37a3.39,3.39,0,0,0,.29-.21C140.23,75.34,138.35,75.86,139,76.37Z"/><path class="cls-2" d="M167.29,95.35l-4.41-1.58-.33,1.2A24.93,24.93,0,0,0,167.29,95.35Z"/><path class="cls-2" d="M163.93,107.56l4.18.52c-1.32-.62-2.65-1.22-4-1.75C164,106.74,164,107.15,163.93,107.56Z"/><path class="cls-2" d="M130,121.45c.94-.19,1.87-.43,2.79-.67l-.56-1A11.74,11.74,0,0,1,130,121.45Z"/><path class="cls-2" d="M133.51,108.31a15.07,15.07,0,0,1,2.64.77c0-.34.09-.68.13-1A13.66,13.66,0,0,1,133.51,108.31Z"/><path class="cls-2" d="M132.9,120.91a12.43,12.43,0,0,1-2.41,1.72c1-.22,2-.47,3-.73Z"/><path class="cls-2" d="M136.11,109.35a14.72,14.72,0,0,1-2.65.2,13.93,13.93,0,0,1,2.52.8Z"/><path class="cls-2" d="M157.17,131.64a31,31,0,0,0-2.42-2.84l-.74,1C155.07,130.31,156.12,131,157.17,131.64Z"/><path class="cls-2" d="M154.79,128.76A35.24,35.24,0,0,1,158,130.7a32.45,32.45,0,0,0-2.48-2.9Z"/><path class="cls-2" d="M170.87,124.8c.47.16,1,.33,1.51.49a13.44,13.44,0,0,0-3.15-2.08c-2.52-1.22-5.36-2.18-7.06-4.39l-.74,1A33.49,33.49,0,0,0,170.87,124.8Z"/><path class="cls-2" d="M139.65,77h-.15c0,.14,0,.32,0,.4a.76.76,0,0,1,0,.16l0,0a3.21,3.21,0,0,0,.9-.72,1.09,1.09,0,0,0-.18-1,1.83,1.83,0,0,0-.24.13C140.16,76.45,140.05,76.82,139.65,77Z"/><path class="cls-2" d="M139,77.73a1.35,1.35,0,0,0,.45,0,1.42,1.42,0,0,0,0-.2A4.25,4.25,0,0,1,139,77.73Z"/><path class="cls-2" d="M139.35,77h0l.16,0C139.49,76.76,139.45,76.64,139.35,77Z"/><path class="cls-2" d="M139.34,77h0c.1-.33.14-.21.15,0h.15c.4-.13.51-.5.35-1.08a3.42,3.42,0,0,0-.78.65,1,1,0,0,1-.24-.15,1.9,1.9,0,0,1-.32.16l.24.31A1,1,0,0,0,139.34,77Z"/><path class="cls-2" d="M139.51,77.36c0-.08,0-.26,0-.4l-.16,0-.53.7.07,0,.11,0a4.25,4.25,0,0,0,.49-.21A.76.76,0,0,0,139.51,77.36Z"/><path class="cls-2" d="M132.63,62.85a4.45,4.45,0,0,0,.65-1.58,6.84,6.84,0,0,0-1.46.77Z"/><path class="cls-2" d="M141.44,64.31c2.54,2,4.34,4.89,6.86,6.94,9.21,7.49,23.9,2.09,34.15,8.07a9.54,9.54,0,0,0,2.75,1.32c2,.41,3.9-.84,5.83-1.49a10.35,10.35,0,0,1,12.16,5.16c1.58,3.27,1.26,7.09.91,10.71a4.41,4.41,0,0,1-.77,2.48A4.24,4.24,0,0,1,201,98.61c-4.68,1.11-10.36,1.5-13.55-2.1-2.09-2.35-3.28-6.39-6.43-6.35,3.15,0,4.34,4,6.43,6.35,3.19,3.6,8.87,3.21,13.55,2.1a4.24,4.24,0,0,0,2.33-1.11A4.41,4.41,0,0,0,204.1,95c.35-3.62.67-7.44-.91-10.71A10.35,10.35,0,0,0,191,79.15c-1.93.65-3.83,1.9-5.83,1.49a9.54,9.54,0,0,1-2.75-1.32c-10.25-6-24.94-.58-34.15-8.07-2.52-2-4.32-4.89-6.86-6.94-2-1.61-4.78-2.62-7.15-2a5.77,5.77,0,0,1-.76,1.48l-.81-.81-.27.18c.07-.09.12-.18.18-.27l-.81-.81a6.84,6.84,0,0,1,1.46-.77,6.06,6.06,0,0,0-3.87-6.66c-3.36-1.08-7.22,1-8.72,4.22A11.09,11.09,0,0,0,121.56,69a7.9,7.9,0,0,0,2.65,2.88c2.17,1.27,4.87.88,7.38,1.06,2.23.17,4.78,1.28,5.4,3.29a2.38,2.38,0,0,1,.17-.31,1.41,1.41,0,0,1,.68-.45.91.91,0,0,1,.07-.14A6.71,6.71,0,0,0,133,71.86c-3.27-.68-7.19.58-9.6-2.35-2.18-2.66-3.14-6.85-1.67-10.05,1.16-2.53,4.16-4.46,7-3.74s4.33,4.38,2.62,6.76c-.72,1,.71,2.41,1.71,1.72,3.63-2.52,7.68.89,10.06,3.51,2.71,3,5.24,5.68,9,7.22,6.92,2.81,14.62,1.75,21.84,2.91a26.62,26.62,0,0,1,5.2,1.32c1.73.65,3.2,1.82,4.92,2.47,2,.76,4,0,5.87-.75a9.67,9.67,0,0,1,5.13-.86,9,9,0,0,1,7.58,6.64,20.1,20.1,0,0,1,.29,6.61,8.54,8.54,0,0,1-.46,3.11c-.48.92-1.83,1-2.75,1.22-3.69.78-8.52,1.2-11.34-1.84-2.33-2.51-3.38-6.73-7.44-6.85a1.12,1.12,0,0,0-.56.11,4,4,0,0,1-.58,1.51,1.18,1.18,0,0,0,1.14.88c1.73,0,2.69,1.84,3.52,3.12a14.47,14.47,0,0,0,3.28,4,9.81,9.81,0,0,0,3.09,1.53c.56-.81,2-.92,2.21.29l0,.17a21.87,21.87,0,0,0,5.89-.25l1.14-.19a1.36,1.36,0,0,1,1.8-.41,4.64,4.64,0,0,0,2.43-1.55c1.25-1.66,1.11-4.42,1.19-6.4.2-4.34-.68-8.79-4.23-11.64A11.66,11.66,0,0,0,191,77.85c-2.08.6-4.24,2.3-6.44,1.25a48.28,48.28,0,0,0-5.37-2.59c-7.66-2.59-16-1.05-23.73-3.11A15.65,15.65,0,0,1,147.64,69a8.91,8.91,0,0,1-4.26-4c-.14-.29-.25-.59-.36-.88-2.33-2-5.46-3.61-8.44-3.13a6.29,6.29,0,0,1-.29,1.34C136.66,61.69,139.45,62.7,141.44,64.31Z"/><path class="cls-2" d="M132.63,62.85l.09.09a4.93,4.93,0,0,1,1.57-.67,6.29,6.29,0,0,0,.29-1.34,6.55,6.55,0,0,0-1.3.34A4.45,4.45,0,0,1,132.63,62.85Z"/><path class="cls-2" d="M118.84,64.19l-.16.08a13.78,13.78,0,0,0,2.38,6.27h0c.91-.11,1.29.65,1.16,1.37a7.54,7.54,0,0,0,2.37,1.51c2.24.87,4.64.53,7,.74,1.59.15,4.11.91,4.3,2.83a1.25,1.25,0,0,0,.86,1.1c0-.09,0-.19.07-.29.14-.47,0-1.06.17-1.6-.62-2-3.17-3.12-5.4-3.29-2.51-.18-5.21.21-7.38-1.06A7.9,7.9,0,0,1,121.56,69a11.09,11.09,0,0,1-.87-10.13c1.5-3.19,5.36-5.3,8.72-4.22a6.06,6.06,0,0,1,3.87,6.66,6.55,6.55,0,0,1,1.3-.34,7.5,7.5,0,0,0-2-5.76c-2.39-2.52-6.2-2.6-9.12-1a9.64,9.64,0,0,0-4.79,7.8A1.2,1.2,0,0,1,118.84,64.19Z"/><path class="cls-2" d="M132.72,62.94l-.09-.09c-.06.09-.11.18-.18.27Z"/><path class="cls-2" d="M134.29,62.27a4.93,4.93,0,0,0-1.57.67l.81.81A5.77,5.77,0,0,0,134.29,62.27Z"/><path class="cls-2" d="M147.64,69c-1.24-1.27-2.37-2.67-3.6-3.94-.32-.33-.66-.64-1-1,.11.29.22.59.36.88A8.91,8.91,0,0,0,147.64,69Z"/><path class="cls-2" d="M138.26,77.37h0l0-.2a1.2,1.2,0,0,1-.06-1.28,5.21,5.21,0,0,0-.2-.5h0l-.07,0A1.57,1.57,0,0,0,138.26,77.37Z"/><path class="cls-2" d="M179.88,90.53a4,4,0,0,0,.58-1.51A1.25,1.25,0,0,0,179.88,90.53Z"/><path class="cls-2" d="M138,75.38l0-.09a.91.91,0,0,0-.07.14l.07,0Z"/><path class="cls-2" d="M138.12,77.84a3.64,3.64,0,0,1,.14-.47,1.57,1.57,0,0,1-.42-1.94,1.41,1.41,0,0,0-.68.45,2.38,2.38,0,0,0-.17.31,3.35,3.35,0,0,1,.15.79,3.35,3.35,0,0,0-.15-.79c-.2.54,0,1.13-.17,1.6,0,.1,0,.2-.07.29A1.3,1.3,0,0,0,138.12,77.84Z"/><path class="cls-2" d="M138.31,76.59a4.29,4.29,0,0,0-.16-.71,1.2,1.2,0,0,0,.06,1.28C138.08,76.64,138.11,76.61,138.31,76.59Z"/><path class="cls-2" d="M138.26,77.37a3.64,3.64,0,0,0-.14.47.92.92,0,0,0,.22-.4Z"/><path class="cls-2" d="M138.39,77c0-.14-.06-.26-.08-.39-.2,0-.23,0-.1.57a1.49,1.49,0,0,0,.15.2A1.17,1.17,0,0,0,138.39,77Z"/><path class="cls-2" d="M138.36,77.36a1.49,1.49,0,0,1-.15-.2l0,.2h0l.08.07A.31.31,0,0,0,138.36,77.36Z"/><path class="cls-2" d="M77.3,89.5A10.1,10.1,0,0,0,81.05,89c0-.06,0-.12,0-.19a1.28,1.28,0,0,1,1.93-1c.48-.47.89-1,1.34-1.53a7.52,7.52,0,0,1,2.42-1.79c1.91-.93,4-1.63,5.93-2.42,9.2-3.68,18.5-7.75,28.41-9a1.33,1.33,0,0,0,1.16-1.13,9.06,9.06,0,0,1-1.19-1.36c-8.12,1-15.78,3.81-23.35,6.82-3.78,1.5-7.59,2.94-11.33,4.54a10.49,10.49,0,0,0-4.09,2.9,5.46,5.46,0,0,1-2,1.85,6.62,6.62,0,0,1-2.57.36c-3.43,0-8-.91-9.12-4.72-1-3.29,2.35-7.63,5.29-8.81a4.74,4.74,0,0,1,4.46.36c1.34,1,1.86,2.46,3.69,2.7s3.73-.5,5.43-.92q3-.72,6-1.59a152.31,152.31,0,0,0,25.21-9.76l-.06-.52a11.35,11.35,0,0,1,0-1.75,1.21,1.21,0,0,0-1,0A148.13,148.13,0,0,1,93,71.56c-2.06.6-4.14,1.15-6.22,1.65-1,.26-2.09.52-3.14.73a2.15,2.15,0,0,1-2.47-.75,7.18,7.18,0,0,0-8.94-1.7A12.34,12.34,0,0,0,66,80.35c-.39,3.62,2.2,6.7,5.38,8a14.32,14.32,0,0,0,1.56.53l.17,0A18.77,18.77,0,0,0,77.3,89.5ZM67.17,81.2a8.33,8.33,0,0,1,1.45-4.41,10.66,10.66,0,0,1,4.81-4.47,5.8,5.8,0,0,1,6.21,1c.64.64,1.12,1.5,2,1.86a3.94,3.94,0,0,0,2.4,0,149,149,0,0,0,34.21-12A149,149,0,0,1,84,75.14a3.94,3.94,0,0,1-2.4,0c-.84-.36-1.32-1.22-2-1.86a5.8,5.8,0,0,0-6.21-1,10.66,10.66,0,0,0-4.81,4.47,8.33,8.33,0,0,0-1.45,4.41,6.83,6.83,0,0,0,3.65,5.55,14,14,0,0,0,6.7,1.51,6.79,6.79,0,0,0,4.12-.94,22.17,22.17,0,0,0,2.22-2.41,11.62,11.62,0,0,1,4.07-2.3l8-3.19c8.17-3.27,16.46-6.57,25.2-7.64-8.74,1.07-17,4.37-25.2,7.64l-8,3.19a11.62,11.62,0,0,0-4.07,2.3,22.17,22.17,0,0,1-2.22,2.41,6.79,6.79,0,0,1-4.12.94,14,14,0,0,1-6.7-1.51A6.83,6.83,0,0,1,67.17,81.2Z"/><path class="cls-2" d="M121.09,70.53h0a9.06,9.06,0,0,0,1.19,1.36C122.38,71.18,122,70.42,121.09,70.53Z"/><path class="cls-2" d="M118.62,63.75l.06.52.16-.08a1.2,1.2,0,0,0-.21-2.19A11.35,11.35,0,0,0,118.62,63.75Z"/><path class="cls-2" d="M97.31,145.76a30.87,30.87,0,0,1,4.07,6.14,31.52,31.52,0,0,0,2.69,2.07,6.55,6.55,0,0,0,.57-1.16A33.58,33.58,0,0,1,97.31,145.76Z"/><path class="cls-2" d="M97.21,145.63l-1,.76c.32.4.63.8.94,1.21a35.63,35.63,0,0,0,4.21,4.3,30.87,30.87,0,0,0-4.07-6.14A1.47,1.47,0,0,1,97.21,145.63Z"/><path class="cls-2" d="M89.39,149.44l.13.15a1.21,1.21,0,0,1,.32.95l.51-.22a6.76,6.76,0,0,0,1.86,3,37.33,37.33,0,0,1-2-3.26A1,1,0,0,0,89.39,149.44Z"/><path class="cls-2" d="M104.07,154l.07.05,1.55-.41s0,0,0,0c-.37-.24-.71-.51-1.07-.76A6.55,6.55,0,0,1,104.07,154Z"/><path class="cls-2" d="M96.13,146.27l.1.12,1-.76a1.47,1.47,0,0,0,.1.13l-.3-.38c-.87-1.1-2.81.38-2,1.52l.2.24,1-.75Z"/><path class="cls-2" d="M92.21,153.29a33.06,33.06,0,0,0,3.31,4.07,8.89,8.89,0,0,0-1-1.65A32.66,32.66,0,0,0,92.21,153.29Z"/><path class="cls-2" d="M95.25,147.14a37.75,37.75,0,0,0,5,5.38,25.64,25.64,0,0,0-3.11-4.92c-.32-.4-.64-.8-.94-1.21Z"/><path class="cls-2" d="M96.23,146.39c.3.41.62.81.94,1.21-.31-.41-.62-.81-.94-1.21Z"/><path class="cls-2" d="M93.07,140A6.86,6.86,0,0,0,93,142a3.64,3.64,0,0,1,1.66,2.34c-.39-1.81-1.16-5.41,1.3-6.23,1.92-.64,4.18,2.46,5.26,3.66,2.63,2.93,5,7.13,3.47,11,.36.25.7.52,1.07.76a9.75,9.75,0,0,0-.22-7.51,23.23,23.23,0,0,0-5.37-7.15,6.13,6.13,0,0,0-3.45-2.07,1.28,1.28,0,0,1-2.29.83A4.44,4.44,0,0,0,93.07,140Z"/><path class="cls-2" d="M88.07,151.29c.07.14.16.27.23.41a1.07,1.07,0,0,0,1.09-.25c-.08-.21-.14-.42-.2-.64Z"/><path class="cls-2" d="M89.19,150.81c0-.05,0-.1,0-.15l.08.14.61-.26a1.21,1.21,0,0,0-.32-.95l-.13-.15h-.15l-.71.92a1.13,1.13,0,0,1,.1.13l-.13-.09c-.18.23-.35.46-.53.68a5.66,5.66,0,0,0,.2.58l.13,0c-.07-.14-.16-.27-.23-.41Z"/><path class="cls-2" d="M93.07,140a4.44,4.44,0,0,1,1.31-2.3l-.06-.07c-.21-.34-.4-.68-.6-1a5.89,5.89,0,0,0-2,4.93A4.6,4.6,0,0,1,93,142,6.86,6.86,0,0,1,93.07,140Z"/><path class="cls-2" d="M89.52,151.32l-.29-.52h0c.06.22.12.43.2.64A1.59,1.59,0,0,0,89.52,151.32Z"/><path class="cls-2" d="M88.05,150.09a1.19,1.19,0,0,0-.11.9l0,.08c.18-.22.35-.45.53-.68Z"/><path class="cls-2" d="M93.4,144.71h0A21.88,21.88,0,0,1,93,142a4.6,4.6,0,0,0-1.22-.53c0,.44,0,.88.09,1.33A2.42,2.42,0,0,1,93.4,144.71Z"/><path class="cls-2" d="M87.67,143.78a3.61,3.61,0,0,1,4.15-.94c0-.45-.08-.89-.09-1.33a5,5,0,0,0-4,.57,4.89,4.89,0,0,0-1.91,5.39,12.87,12.87,0,0,1,1.41.66A4.62,4.62,0,0,1,87.67,143.78Z"/><path class="cls-2" d="M89.39,151.45a8.35,8.35,0,0,0,1.73,2.48,30.39,30.39,0,0,1-1.6-2.61A1.59,1.59,0,0,1,89.39,151.45Z"/><path class="cls-2" d="M88.05,150.09A19.62,19.62,0,0,0,86.28,149a8.19,8.19,0,0,0,1.47,2.32l.22-.29,0-.08A1.19,1.19,0,0,1,88.05,150.09Z"/><path class="cls-2" d="M88.18,149.94a6.36,6.36,0,0,1-1-1.81,12.87,12.87,0,0,0-1.41-.66,7.73,7.73,0,0,0,.49,1.57,19.62,19.62,0,0,1,1.77,1.05C88.09,150,88.14,150,88.18,149.94Z"/><path class="cls-2" d="M105.11,154.68a6.53,6.53,0,0,0,.58-1.07l-1.55.41C104.46,154.24,104.78,154.47,105.11,154.68Z"/><path class="cls-2" d="M104,154.05l.11,0-.07-.05A.3.3,0,0,1,104,154.05Z"/><path class="cls-2" d="M100.25,161.48c-.31-.22-.6-.45-.9-.68a7.06,7.06,0,0,1-.62.88Z"/><path class="cls-2" d="M89.52,151.32a1.46,1.46,0,0,0,.32-.78l-.61.26Z"/><path class="cls-2" d="M89.19,150.81h0l-.08-.14C89.16,150.71,89.18,150.76,89.19,150.81Z"/><path class="cls-2" d="M89,144.22c1-.76,2.92-.54,3.21.82-.15-.7-.29-1.45-.38-2.2a3.61,3.61,0,0,0-4.15.94,4.62,4.62,0,0,0-.47,4.35c.71.39,1.4.83,2.07,1.27l0,0h.15C88.27,148.11,87.33,145.49,89,144.22Z"/><path class="cls-2" d="M105.74,153.6l0,0s0,0,0,0Z"/><path class="cls-2" d="M93.66,162.61a4.89,4.89,0,0,1-3.94.12A18,18,0,0,1,81.17,134,79.33,79.33,0,0,1,72.6,90.1,79.33,79.33,0,0,0,81.17,134a18,18,0,0,0,8.55,28.76,4.89,4.89,0,0,0,3.94-.12,1.29,1.29,0,0,1,.89-.92,3,3,0,0,0,.37-1.42c-.53-.5-1-1-1.54-1.56.44,1.16.54,2.73-1,3.07s-3.3-.49-4.6-1.12a17.19,17.19,0,0,1-8.22-8.56,1.29,1.29,0,0,1-1.6-1.52,4.51,4.51,0,0,1,.63-1.41,15.89,15.89,0,0,1-.4-3.65,17.08,17.08,0,0,1,3.83-10.67,1.3,1.3,0,0,0,.19-1.51,78.62,78.62,0,0,1-8.4-43.24A1,1,0,0,0,73.08,89l-.17,0a1.33,1.33,0,0,0-1.56,1.18,80.84,80.84,0,0,0,8.37,43.74c.18-.26.37-.51.57-.76-.07.51-.13,1-.2,1.52-.13-.25-.25-.51-.37-.76a19.42,19.42,0,0,0-1.17,21.71,19.67,19.67,0,0,0,8.5,7.5c1.92.86,4.78,1.63,6.8.86-.07-.24-.14-.49-.19-.74A1.18,1.18,0,0,1,93.66,162.61Z"/><path class="cls-2" d="M90.19,154.76a35.41,35.41,0,0,1-1.89-3.06l-.13,0A9.58,9.58,0,0,0,90.19,154.76Z"/><path class="cls-2" d="M80.29,133.08c-.2.25-.39.5-.57.76.12.25.24.51.37.76C80.16,134.09,80.22,133.59,80.29,133.08Z"/><path class="cls-2" d="M93.4,144.71a2.42,2.42,0,0,0-1.58-1.87c.09.75.23,1.5.38,2.2Z"/><path class="cls-2" d="M88.18,149.94c.11.14.23.28.35.41l.71-.92A1.33,1.33,0,0,0,88.18,149.94Z"/><path class="cls-2" d="M88.63,150.48a1.13,1.13,0,0,0-.1-.13l0,0Z"/><path class="cls-2" d="M94.61,144.38l-1.21.33h0l-1.2.33C92.54,146.61,95,146,94.61,144.38Z"/><path class="cls-2" d="M87.2,148.13a6.36,6.36,0,0,0,1,1.81,1.33,1.33,0,0,1,1.06-.51l0,0C88.6,149,87.91,148.52,87.2,148.13Z"/><path class="cls-2" d="M88.05,150.09l.45.3,0,0c-.12-.13-.24-.27-.35-.41C88.14,150,88.09,150,88.05,150.09Z"/><path class="cls-2" d="M93,142a21.88,21.88,0,0,0,.45,2.67l1.21-.33A3.64,3.64,0,0,0,93,142Z"/><path class="cls-2" d="M96.23,146.39h0l-.1-.12Z"/><path class="cls-2" d="M96.09,161a5,5,0,0,0,.07-1.28c-.58-.53-1.14-1.09-1.68-1.67a5.22,5.22,0,0,1,.44,2.18c.37.35.73.69,1.11,1A2.27,2.27,0,0,0,96.09,161Z"/><path class="cls-2" d="M78,150.58a1.29,1.29,0,0,0,1.6,1.52,16.77,16.77,0,0,1-1-2.93A4.51,4.51,0,0,0,78,150.58Z"/><path class="cls-2" d="M94.92,160.27a3,3,0,0,1-.37,1.42,1.14,1.14,0,0,1,1.26.29,4.3,4.3,0,0,0,.22-.69C95.65,161,95.29,160.62,94.92,160.27Z"/><path class="cls-2" d="M91.12,153.93a8.35,8.35,0,0,1-1.73-2.48,1.07,1.07,0,0,1-1.09.25,35.41,35.41,0,0,0,1.89,3.06l.15.17a14,14,0,0,1,2.9,3.44c.05.11.09.22.14.34.5.54,1,1.06,1.54,1.56a5.22,5.22,0,0,0-.44-2.18A32.69,32.69,0,0,1,91.12,153.93Z"/><path class="cls-2" d="M91.12,153.93a32.69,32.69,0,0,0,3.36,4.16,7,7,0,0,0-1.16-1.87C92.64,155.43,91.84,154.7,91.12,153.93Z"/><path class="cls-2" d="M80.41,151.24a2.74,2.74,0,0,1,3-1.82c1.71.12,3.24,1.22,4.61,2.14l.17.09a5.66,5.66,0,0,1-.2-.58l-.22.29A8.19,8.19,0,0,1,86.28,149a7.51,7.51,0,0,0-2.73-.86c-1.87-.18-4,.88-4.34,2.73.34-1.85,2.47-2.91,4.34-2.73a7.51,7.51,0,0,1,2.73.86,7.73,7.73,0,0,1-.49-1.57,6.91,6.91,0,0,0-3.4-.5,5.34,5.34,0,0,0-3.76,2.2,16.77,16.77,0,0,0,1,2.93A1.12,1.12,0,0,0,80.41,151.24Z"/><path class="cls-2" d="M92.21,153.29a6.76,6.76,0,0,1-1.86-3l-.51.22a1.46,1.46,0,0,1-.32.78,30.39,30.39,0,0,0,1.6,2.61c.72.77,1.52,1.5,2.2,2.29a7,7,0,0,1,1.16,1.87c.54.58,1.1,1.14,1.68,1.67a6.79,6.79,0,0,0-.64-2.4A33.06,33.06,0,0,1,92.21,153.29Z"/><path class="cls-2" d="M90.34,154.93l-.15-.17a34.44,34.44,0,0,0,3.19,4c0-.12-.09-.23-.14-.34A14,14,0,0,0,90.34,154.93Z"/><path class="cls-2" d="M100.85,154a14.08,14.08,0,0,0-.57-1.45,37.75,37.75,0,0,1-5-5.38h0c2.79,3.52,6.79,9.12,4.1,13.65.3.23.59.46.9.68l-1.52.2a7.06,7.06,0,0,0,.62-.88,32.09,32.09,0,0,1-3.83-3.44,6.79,6.79,0,0,1,.64,2.4,32.07,32.07,0,0,0,3.46,2.8C101.61,160.28,101.79,156.84,100.85,154Z"/><path class="cls-2" d="M96.67,136.84a6.13,6.13,0,0,1,3.45,2.07,23.23,23.23,0,0,1,5.37,7.15,9.75,9.75,0,0,1,.22,7.51l0,0h0a6.53,6.53,0,0,1-.58,1.07c-.33-.21-.65-.44-1-.66l-.11,0a.3.3,0,0,0,0-.08,31.52,31.52,0,0,1-2.69-2.07,14.24,14.24,0,0,1,.81,2.21c.74.57,1.5,1.13,2.29,1.65a1.27,1.27,0,0,0,1.71-.45c3.77-6-.47-12.52-4.73-16.82C100,137,98.07,135.44,96,135.6c.15.24.29.49.44.74A1.19,1.19,0,0,1,96.67,136.84Z"/><path class="cls-2" d="M100.85,154c.94,2.87.76,6.31-1.23,8.59a32.07,32.07,0,0,1-3.46-2.8,5,5,0,0,1-.07,1.28,2.27,2.27,0,0,1-.06.25,33.92,33.92,0,0,0,3,2.35,1.24,1.24,0,0,0,1.51-.2,10.08,10.08,0,0,0,1.81-8.89c0-.15-.08-.29-.12-.44-.66-.51-1.29-1-1.91-1.59A14.08,14.08,0,0,1,100.85,154Z"/><path class="cls-2" d="M97.17,147.6a25.64,25.64,0,0,1,3.11,4.92c.62.55,1.25,1.08,1.91,1.59a14.24,14.24,0,0,0-.81-2.21A35.63,35.63,0,0,1,97.17,147.6Z"/><path class="cls-2" d="M72.91,88.92l.17,0Z"/><path class="cls-2" d="M93.72,136.58a3,3,0,0,1,.34-.26,4.68,4.68,0,0,1,.71-.4,86.28,86.28,0,0,1-12.46-47.1,86.28,86.28,0,0,0,12.46,47.1A3.77,3.77,0,0,1,96,135.6,85.53,85.53,0,0,1,83.56,88.82a1.1,1.1,0,0,0-.57-1,5.92,5.92,0,0,1-.59.52,5.14,5.14,0,0,1-1.35.71A88,88,0,0,0,93.72,136.58Z"/><path class="cls-2" d="M83,87.78a1.28,1.28,0,0,0-1.93,1c0,.07,0,.13,0,.19a5.14,5.14,0,0,0,1.35-.71A5.92,5.92,0,0,0,83,87.78Z"/><path class="cls-2" d="M96.67,136.84a2.13,2.13,0,0,0-.44,0,3,3,0,0,0-1.85.85A1.28,1.28,0,0,0,96.67,136.84Z"/><path class="cls-2" d="M95.4,137c-.21-.35-.41-.7-.63-1.05a4.68,4.68,0,0,0-.71.4,3,3,0,0,0-.34.26c.2.34.39.68.6,1l.06.07a3,3,0,0,1,1.85-.85,2.13,2.13,0,0,1,.44,0,1.19,1.19,0,0,0-.19-.5c-.15-.25-.29-.5-.44-.74a3.77,3.77,0,0,0-1.27.32C95,136.27,95.19,136.62,95.4,137Z"/><path class="cls-2" d="M121.87,155.89c-.66-.83.27-2,1.27-2.4.54-.19,1.13-.29,1.69-.45a8.45,8.45,0,0,1-1.13-1,5.22,5.22,0,0,0-1.34.4,3.49,3.49,0,0,0-1.86,2.12,2.34,2.34,0,0,0,.68,2.37,2.81,2.81,0,0,0,.82.48,4,4,0,0,0,1.36-.85A2.81,2.81,0,0,1,121.87,155.89Z"/><path class="cls-2" d="M125.38,152.85c0-.35-.09-.69-.14-1l-.24-.18a4.25,4.25,0,0,1-1.3.44,8.45,8.45,0,0,0,1.13,1A5.1,5.1,0,0,0,125.38,152.85Z"/><path class="cls-2" d="M123.52,148.47c.51-1.41,2.27-1.57,3.72-1.3,0-.42-.07-.85-.07-1.28a4.51,4.51,0,0,0-4.28,1.22c-1.46,1.76-.57,3.6.81,5a4.25,4.25,0,0,0,1.3-.44C123.93,150.79,123.09,149.68,123.52,148.47Z"/><path class="cls-2" d="M128.43,146.66l-.79.6a7,7,0,0,1,.88.28C128.48,147.25,128.45,147,128.43,146.66Z"/><path class="cls-2" d="M127.64,147.26l.79-.6c0-.16,0-.31,0-.47a8.44,8.44,0,0,0-1.25-.3c0,.43,0,.86.07,1.28C127.38,147.19,127.5,147.23,127.64,147.26Z"/><path class="cls-2" d="M125.24,151.82c.05.34.09.68.14,1a2.55,2.55,0,0,0,.71-.46C125.81,152.22,125.52,152,125.24,151.82Z"/><path class="cls-2" d="M139.41,160.23a3.86,3.86,0,0,0-.49.09c0,.35-.09.69-.13,1,.09.08.17.18.26.27a3.52,3.52,0,0,1,1.42-.26A10.44,10.44,0,0,0,139.41,160.23Z"/><path class="cls-2" d="M140.22,163.44a2.2,2.2,0,0,1-1.32,2.81,3.25,3.25,0,0,1-1.24-.08l-14.41-2.79c-1.57-.3-3.58-1.17-3.32-2.76.3-1.89,3.3-1.74,4.45-3.27a1.27,1.27,0,0,0-.9-.71L123.3,158c-.14-.27-.82-.34-1.09-.44l-.21-.1a11.42,11.42,0,0,0-1.74.79,3.08,3.08,0,0,0-1.53,3.28c.77,3.28,5.94,3.41,8.51,3.91l6.48,1.25c1.68.33,4.1,1.26,5.79.69a3.39,3.39,0,0,0,2.06-3.36,4.46,4.46,0,0,0-1.1-2.64,3.52,3.52,0,0,0-1.42.26A4.56,4.56,0,0,1,140.22,163.44Z"/><path class="cls-2" d="M123.3,158l.18-1.35-.12,0a4,4,0,0,1-1.36.85l.21.1C122.48,157.65,123.16,157.72,123.3,158Z"/><path class="cls-2" d="M141.84,154.63c-.68-1.69.36-3.82,1.09-5.31a1.06,1.06,0,0,1-1.59.46c-.9,2.07-1.47,4.41-.18,6.16.78,1.06,2.26,2.1,1.74,3.32s-2.13.81-3.49,1a10.44,10.44,0,0,1,1.06,1.14,7.05,7.05,0,0,0,1.91-.16,2.59,2.59,0,0,0,1.83-2.88C144,156.75,142.41,156,141.84,154.63Z"/><path class="cls-2" d="M135.77,137.46c5.57.15,8,5.53,6.53,10.11a1.3,1.3,0,0,1,.63,1.75c2.51-5.29.12-12.21-6.17-13a8.08,8.08,0,0,0-7.78,3.17,10.86,10.86,0,0,0-1.81,6.43,8.44,8.44,0,0,1,1.25.3C128.29,141.83,130.41,137.31,135.77,137.46Z"/><path class="cls-2" d="M138.79,161.36c0-.35.08-.69.13-1a2,2,0,0,0-.82.4Z"/><path class="cls-2" d="M142.3,147.57a9,9,0,0,1-.45,1.12c-.17.35-.35.72-.51,1.09a1.06,1.06,0,0,0,1.59-.46A1.3,1.3,0,0,0,142.3,147.57Z"/><path class="cls-2" d="M138.92,160.32a3.86,3.86,0,0,1,.49-.09l-.43-.39Z"/><path class="cls-2" d="M139.05,161.63c-.09-.09-.17-.19-.26-.27l-.06.44A2,2,0,0,1,139.05,161.63Z"/><path class="cls-2" d="M140.77,148.06c-1.32,2.7-2.56,6.09-.5,8.76.39.5,1.15,1,1.36,1.62s-.09.43-.61.47c-1.24.1-2.49,0-3.55.74a1.27,1.27,0,0,0-.26,2c.73.65,2,1.59,1.86,2.7-.17,1.36-2.4.4-3.24.24l-8.89-1.72c-.69-.14-6.2-.7-5.75-2.12.17-.54,1.45-.84,1.9-1a5.51,5.51,0,0,0,2.17-1.44,1.32,1.32,0,0,0,.2-1.52,2.41,2.41,0,0,0-1.19-1.1,6.47,6.47,0,0,0-.84-.3c-.38-.13-.51,0-.36-.3.28-.53,1.46-.6,2-.74a5.08,5.08,0,0,0,1.94-1,1.26,1.26,0,0,0-.25-2c-.68-.42-3.08-2.05-1.59-2.85.87-.45,2.22,0,3.06.29a1.26,1.26,0,0,0,1.58-1.21c-.54-4.3,1.23-9.19,6.34-8.82,4.64.34,6.49,5.49,4.66,9.34a1.07,1.07,0,0,1,1.53-.49c1.52-4.58-1-10-6.53-10.11-5.36-.15-7.48,4.37-7.35,8.73.14.05.29.09.43.15l-.42.32c0,.3,0,.59.09.88a7,7,0,0,0-.88-.28l-.37.28c0-.12,0-.25,0-.37-1.45-.27-3.21-.11-3.72,1.3-.43,1.21.41,2.32,1.48,3.17a1.37,1.37,0,0,0,.2-.13l0,.31c.28.21.57.4.85.57a2.55,2.55,0,0,1-.71.46l.08.62c-.21-.13-.42-.27-.63-.43-.56.16-1.15.26-1.69.45-1,.36-1.93,1.57-1.27,2.4a2.81,2.81,0,0,0,1.49.71.86.86,0,0,0,.14-.13l0,.17a1.27,1.27,0,0,1,.9.71c-1.15,1.53-4.15,1.38-4.45,3.27-.26,1.59,1.75,2.46,3.32,2.76l14.41,2.79a3.25,3.25,0,0,0,1.24.08,2.2,2.2,0,0,0,1.32-2.81,4.56,4.56,0,0,0-1.17-1.81,2,2,0,0,0-.32.17l.06-.44-.69-.64a2,2,0,0,1,.82-.4l.06-.48.43.39c1.36-.16,3,.21,3.49-1s-1-2.26-1.74-3.32c-1.29-1.75-.72-4.09.18-6.16A1.31,1.31,0,0,1,140.77,148.06Z"/><path class="cls-2" d="M123.36,156.6l.12,0,0-.17A.86.86,0,0,1,123.36,156.6Z"/><path class="cls-2" d="M125.38,152.85a5.1,5.1,0,0,1-.55.19c.21.16.42.3.63.43Z"/><path class="cls-2" d="M125,151.64l.24.18,0-.31A1.37,1.37,0,0,1,125,151.64Z"/><path class="cls-2" d="M142.3,147.57a1.07,1.07,0,0,0-1.53.49,1.31,1.31,0,0,0,.57,1.72c.16-.37.34-.74.51-1.09A9,9,0,0,0,142.3,147.57Z"/><path class="cls-2" d="M127.64,147.26c-.14,0-.26-.07-.4-.09,0,.12,0,.25,0,.37Z"/><path class="cls-2" d="M128.42,146.19c0,.16,0,.31,0,.47l.42-.32C128.71,146.28,128.56,146.24,128.42,146.19Z"/><path class="cls-2" d="M160,279.33l.38-.29c1.23-1.05-.55-2.81-1.77-1.77-.73.62-1.84-.21-2.28-.83-.84-1.18-.4-2.89-.07-4.16.62-2.37,1.43-4.82.51-7.23a4.77,4.77,0,0,0-2.06-2.45,20.84,20.84,0,0,0-3.53-1.08c-2.39-.82-2.43-3.79-2.74-5.91-.76-5.34-3.81-9.77-7.31-13.74-4.14-4.71-8.61-9.16-12.93-13.71Q121.32,221,114.5,213.8c-1.78-1.87-3.64-3.47-6.3-3.74-1-.1-2.1,0-3.15,0a5.29,5.29,0,0,1-2.65-.36c-1.06-.68-.46-2.23-.41-3.24a4.75,4.75,0,0,0-.79-3c-1.17-1.69-3.2-2.45-5-3.29A7.25,7.25,0,0,1,92,195.86a7.15,7.15,0,0,1,.54-6c1.3-2.07,3.73-3.15,5.67-4.5,2.18-1.51,4-3.41,4.41-6.13,1-6.57-5.28-10.79-6.54-16.73a1.15,1.15,0,0,0-.26-.53,3.55,3.55,0,0,1-.85,1.25c.71,3,2.76,5.59,4.37,8.29s2.92,6.34,1.52,9.3c-1.68,3.56-6.33,4.62-8.85,7.66a8.31,8.31,0,0,0,1.94,11.84c2.54,1.58,6.4,2.28,6.79,5.25.17,1.27-.46,2.61,0,3.82,1,2.92,5.4,1.37,8.4,2.07,1.83.43,3.24,1.86,4.54,3.22l23.54,24.78c4.35,4.58,8.91,9.57,9.93,15.81.41,2.56.46,5.68,2.68,7,1.39.83,3.25.65,4.57,1.59,1.73,1.23,1.78,3.78,1.28,5.85s-1.39,4.16-.92,6.23,3.24,3.68,4.75,2.19c-1.51,1.49-4.27-.13-4.75-2.19s.41-4.17.92-6.23.45-4.62-1.28-5.85c-1.32-.94-3.18-.76-4.57-1.59-2.22-1.34-2.27-4.46-2.68-7-1-6.24-5.58-11.23-9.93-15.81l-23.54-24.78c-1.3-1.36-2.71-2.79-4.54-3.22-3-.7-7.41.85-8.4-2.07-.41-1.21.22-2.55,0-3.82-.39-3-4.25-3.67-6.79-5.25A8.31,8.31,0,0,1,92,188.48c2.52-3,7.17-4.1,8.85-7.66,1.4-3,.17-6.49-1.52-9.3s-3.66-5.25-4.37-8.29a3.53,3.53,0,0,1-1.11.68,25.39,25.39,0,0,0,3.53,6.84c1.52,2.37,3.27,5.26,2.76,8.21-.44,2.51-2.61,3.9-4.6,5.17a16.12,16.12,0,0,0-5,4.22,9.67,9.67,0,0,0,1.51,12.1c1.65,1.51,3.83,2.08,5.71,3.2a3.17,3.17,0,0,1,1.7,2c.27,1.38-.43,2.72,0,4.12.64,2.07,2.69,2.69,4.65,2.78,2.49.1,4.76-.36,6.85,1.35a67,67,0,0,1,6.37,6.56c.9-.45,2.24.2,1.79,1.35l-.15.38,5.85,6.16,2.25,2.35a1.27,1.27,0,0,1,1.34,1.4c3.38,3.53,6.78,7.05,10.07,10.66a38.9,38.9,0,0,1,5.19,6.86,20.42,20.42,0,0,1,2.41,7.57c.36,2.62,1,5.4,3.71,6.54,1.2.5,2.88.43,3.91,1.28s1,2.53.83,3.76c-.47,2.92-2.27,6.15-.43,9a4.78,4.78,0,0,0,3.61,2.22C157.69,278.7,159.27,278.51,160,279.33Z"/><path class="cls-2" d="M93.66,162.61c.07-.05.14-.08.21-.14a2.64,2.64,0,0,0,.68-.78A1.29,1.29,0,0,0,93.66,162.61Z"/><path class="cls-2" d="M94.86,162.84c0,.13.07.26.1.39a3.55,3.55,0,0,0,.85-1.25,1.14,1.14,0,0,0-1.26-.29,2.64,2.64,0,0,1-.68.78c-.07.06-.14.09-.21.14a1.18,1.18,0,0,0,0,.56c0,.25.12.5.19.74a3.53,3.53,0,0,0,1.11-.68C94.93,163.1,94.89,163,94.86,162.84Z"/><path class="cls-2" d="M127.42,202a8.17,8.17,0,0,0-.57-4.44,8.46,8.46,0,0,0-8.45-4.79,5.65,5.65,0,0,0-4.56,2.57c-.94,1.76-.25,3.78.76,5.34a59.82,59.82,0,0,0,4.3,5.37L124,212.2l19.45,23.6c3.18,3.87,6.33,7.77,9.56,11.6a26,26,0,0,0,9.29,7.44c1.33.6,3.76,1.44,3.92,3.16s-1.49,3.48-1,5.4a3,3,0,0,0,1.59,2c.95.5,1.88.59,2.45,1.61,1.25,2.28-.31,4.88-1.43,6.86a1.19,1.19,0,0,0,.48,1.68,1.24,1.24,0,0,1,1.2.05,1.06,1.06,0,0,0,.47-.47c1.72-3,3.44-6.93,1-10.07a4.8,4.8,0,0,0-1.67-1.36c-.68-.32-1.7-.33-1.61-1.26.15-1.59,1.19-2.92,1.07-4.58-.22-3.15-3.58-4.42-6-5.54-3.61-1.65-6.21-4.61-8.7-7.61q-15.36-18.57-30.64-37.2a1.38,1.38,0,0,1-.82-1q-2.16-2.64-4.34-5.27c-1.12-1.37-3.71-4.28-1.12-5.55a5.77,5.77,0,0,1,5.25.4c3.51,2,3.55,6.89.6,9.43a1.07,1.07,0,0,0-.39,1l.82,1a1.23,1.23,0,0,0,1.34-.21,8.17,8.17,0,0,0,2.12-2.92l-.26-.24A1.24,1.24,0,0,1,127.42,202Zm-3.66,4.39a7,7,0,0,0-6.67-12.09,3.74,3.74,0,0,0-2.09,1.51c-1,1.76.32,3.94,1.63,5.52l36,43.76c2.6,3.16,5.34,6.43,9.06,8.15,2.42,1.12,5.7,2.23,5.71,4.89,0,2.08-2.1,4.51-.53,5.88a6,6,0,0,0,1.67.74,4.52,4.52,0,0,1,2.28,4.63,13.1,13.1,0,0,1-2,5.09,13.1,13.1,0,0,0,2-5.09,4.52,4.52,0,0,0-2.28-4.63,6,6,0,0,1-1.67-.74c-1.57-1.37.53-3.8.53-5.88,0-2.66-3.29-3.77-5.71-4.89-3.72-1.72-6.46-5-9.06-8.15l-36-43.76c-1.31-1.58-2.68-3.76-1.63-5.52a3.74,3.74,0,0,1,2.09-1.51,7,7,0,0,1,6.67,12.09Z"/><path class="cls-2" d="M123.3,207.48l-.82-1A1.38,1.38,0,0,0,123.3,207.48Z"/><path class="cls-2" d="M134,208.32a31.27,31.27,0,0,1-6.64-5.09,31.27,31.27,0,0,0,6.64,5.09,1.51,1.51,0,0,1,1-.17,1.29,1.29,0,0,1,.74.58,1.07,1.07,0,0,1,.14.4l.3.11c3.44,1,7.76.16,9.53-3,1.52-2.68.75-6.12-.8-8.78-.84-1.45-2-3-1.48-4.65.68-2.35,3.85-2.57,6.06-3.64a7.52,7.52,0,0,0,3.93-5.76c-.93-1.1-.69-2.85,0-4.55a15.79,15.79,0,0,0-1-3.64,14.44,14.44,0,0,0-1-2c-1.5-.43-3-1.08-3.13-2.68-2.24-.77-4.84,0-7.19.64-4.71,1.32-9.67,2.12-14.5,1.32s-9.53-3.4-12-7.62c-1.13-1.93-1.77-4.14-3.16-5.89s-4-2.91-5.87-1.77c1.92-1.14,4.48,0,5.87,1.77s2,4,3.16,5.89c2.46,4.22,7.16,6.82,12,7.62s9.79,0,14.5-1.32c2.35-.66,4.95-1.41,7.19-.64a2.74,2.74,0,0,1,0-.58,5.28,5.28,0,0,1,.09-.68c-2.83-.76-6.09.33-9,1.06-4.7,1.19-9.74,1.81-14.49.51a15.34,15.34,0,0,1-10.17-8.47c-1-2.13-2-4.31-4-5.69a5.53,5.53,0,0,0-5.82-.55c-1.43.74-.16,2.9,1.26,2.16,1.61-.84,3.45.38,4.41,1.65,1.22,1.62,1.82,3.63,2.8,5.37a16.75,16.75,0,0,0,7.84,6.87,24,24,0,0,0,11.45,1.8,41.63,41.63,0,0,0,6.66-1.07,43,43,0,0,1,6-1.43,4.91,4.91,0,0,1,4.87,2.21,13.5,13.5,0,0,1,1.84,4.67c.58,2.7.51,6.08-1.34,8.31s-5.51,2-7.55,4.17c-3,3.2.95,6.81,1.81,10a5.91,5.91,0,0,1-1.12,5.84,6.75,6.75,0,0,1-4.74,1.76c-4.39,0-7.89-3.28-10.91-6.07a1.21,1.21,0,0,0-.84-.34,8.75,8.75,0,0,1-.66,2.35,31.72,31.72,0,0,0,6.67,5.08c0-.13.06-.27.08-.4A1,1,0,0,1,134,208.32Z"/><path class="cls-2" d="M153.47,183.44a7.52,7.52,0,0,1-3.93,5.76c-2.21,1.07-5.38,1.29-6.06,3.64-.47,1.61.64,3.2,1.48,4.65,1.55,2.66,2.32,6.1.8,8.78-1.77,3.13-6.09,4-9.53,3l-.3-.11a1.76,1.76,0,0,1,0,.56c0,.24-.09.48-.14.72a13,13,0,0,0,1.4.33c3.34.56,7.13-.33,9.22-3.17,2.6-3.55,1.2-8-.79-11.45-.53-.9-1.34-2.12-.83-3.19a3.1,3.1,0,0,1,1.78-1.3c1.57-.64,3.25-1,4.65-2a9.1,9.1,0,0,0,3.41-5.41A2.68,2.68,0,0,1,153.47,183.44Z"/><path class="cls-2" d="M151.63,173.27l-.19-.06a14.44,14.44,0,0,1,1,2,15.79,15.79,0,0,1,1,3.64,15.2,15.2,0,0,1,1-1.93,16,16,0,0,0-1.31-3.36C152.63,173.51,152.13,173.4,151.63,173.27Z"/><path class="cls-2" d="M126.5,204.11l.26.24a8.75,8.75,0,0,0,.66-2.35A1.24,1.24,0,0,0,126.5,204.11Z"/><path class="cls-2" d="M149.58,169.67c.65-3.24,3.67-5.6,6.86-6.47s6.4-.55,9.61-.21a1.48,1.48,0,0,1,.49-1.18l-.22-.05c-4-.42-8.24-.78-12,.9-2.68,1.18-5.33,3.61-5.9,6.61a6.37,6.37,0,0,1,1.19.46A.13.13,0,0,0,149.58,169.67Z"/><path class="cls-2" d="M166.87,164.19c1,.79,2.36,2.05,1.4,3.29s-3,1.85-4.39,2.37A19.64,19.64,0,0,1,153,171c-.45-.1-2-.33-2.19-.78s.46-1.64.71-2.07a8.19,8.19,0,0,1,3.4-3c3.48-1.79,7.69-1.26,11.44-.87a1,1,0,0,0,.55-.07l-.3-.23a1.27,1.27,0,0,1-.52-1c-3.21-.34-6.5-.64-9.61.21s-6.21,3.23-6.86,6.47a.13.13,0,0,1,0,.06,6.4,6.4,0,0,1,1.87,1.41,11.33,11.33,0,0,1,.8,1c4.79,1.21,10,0,14.56-2.15,1.36-.64,2.85-1.57,3-3.07s-1.07-2.8-2.33-3.78A1.07,1.07,0,0,1,166.87,164.19Z"/><path class="cls-2" d="M171.1,166.33c-.13-2-1.78-3.4-3.26-4.53a1,1,0,0,0-1.3,0,1.35,1.35,0,0,1,1,1.31c1.26,1,2.54,2.24,2.33,3.78s-1.68,2.43-3,3.07c-4.53,2.12-9.77,3.36-14.56,2.15a13.55,13.55,0,0,1,.9,1.48,18.7,18.7,0,0,0,4.09.23c.53,0,1.06-.09,1.59-.15a27.41,27.41,0,0,1,6.55-2.84,29.53,29.53,0,0,1,3.79-.82A4.32,4.32,0,0,0,171.1,166.33Z"/><path class="cls-2" d="M166.05,163l.27,0-.27,0a1.27,1.27,0,0,0,.52,1l.3.23a1.07,1.07,0,0,0,.64-1.07l-.31-.24.31.24a1.35,1.35,0,0,0-1-1.31A1.48,1.48,0,0,0,166.05,163Z"/><path class="cls-2" d="M149.11,170.87a5.05,5.05,0,0,0-.8-.34c.17,1.6,1.63,2.25,3.13,2.68A6.53,6.53,0,0,0,149.11,170.87Z"/><path class="cls-2" d="M153.14,173.6a13.55,13.55,0,0,0-.9-1.48,12.69,12.69,0,0,1-1.59-.49,1.88,1.88,0,0,1-.93-.6,1.76,1.76,0,0,1-.15-1.3,6.37,6.37,0,0,0-1.19-.46,5.28,5.28,0,0,0-.09.68,2.74,2.74,0,0,0,0,.58,5.05,5.05,0,0,1,.8.34,6.53,6.53,0,0,1,2.33,2.34l.19.06C152.13,173.4,152.63,173.51,153.14,173.6Z"/><path class="cls-2" d="M149.57,169.73a1.76,1.76,0,0,0,.15,1.3,1.88,1.88,0,0,0,.93.6,12.69,12.69,0,0,0,1.59.49,11.33,11.33,0,0,0-.8-1A6.4,6.4,0,0,0,149.57,169.73Z"/><path class="cls-2" d="M158.24,175.83a1.23,1.23,0,0,0-.34-1.17A1.36,1.36,0,0,0,158.24,175.83Z"/><path class="cls-2" d="M171.17,169.86a15.12,15.12,0,0,0-2,.16,10,10,0,0,1-1,.64,26,26,0,0,1-9.38,3l-.36.2a1.21,1.21,0,0,0-.56.78,1.23,1.23,0,0,1,.34,1.17,1.12,1.12,0,0,0,1.49.21,25,25,0,0,1,9.13-3.41,8.91,8.91,0,0,1,4.2-.08c1.42.52,0,2.06-.53,2.85a17.09,17.09,0,0,1-13.68,6.9,15.12,15.12,0,0,1-2.33-.16,2.91,2.91,0,0,1-1-.22c-.26-.21-.06-.72,0-1.07a9.38,9.38,0,0,1,2.41-4.46,1.17,1.17,0,0,0,.31-.56,1.36,1.36,0,0,1-.34-1.17,1.16,1.16,0,0,0-1.74,0,13.16,13.16,0,0,0-1.71,2.34,17.79,17.79,0,0,1,.38,1.93,10.18,10.18,0,0,1,2.22-3.38,10.18,10.18,0,0,0-2.22,3.38,15.37,15.37,0,0,1,0,4.12,3.93,3.93,0,0,0,.76.23,18.23,18.23,0,0,0,18.81-8.46,2.9,2.9,0,0,0,.54-1.91c-.24-1.43-2.11-1.82-3.56-1.75A25.56,25.56,0,0,0,159.1,175a25.56,25.56,0,0,1,12.3-3.84c1.45-.07,3.32.32,3.56,1.75a2.9,2.9,0,0,1-.54,1.91,18.23,18.23,0,0,1-18.81,8.46,3.93,3.93,0,0,1-.76-.23c-.06.41-.13.82-.23,1.22a1.92,1.92,0,0,0,.36.14,12.52,12.52,0,0,0,2.47.44,1.4,1.4,0,0,1,1.86,0,19.86,19.86,0,0,0,6.25-1.26,19.52,19.52,0,0,0,8.58-6.19l.34-.44a1.2,1.2,0,0,1,.6-.82,4.64,4.64,0,0,0,1-3.83,2.82,2.82,0,0,0-1-1.44c-.93,0-1.88-.09-2.82-.15A1.21,1.21,0,0,1,171.17,169.86Z"/><path class="cls-2" d="M154.31,182.56a1.32,1.32,0,0,0,.54.45,15.37,15.37,0,0,0,0-4.12,9.87,9.87,0,0,0-.66,2.45A1.77,1.77,0,0,0,154.31,182.56Z"/><path class="cls-2" d="M153.47,183.44a14.17,14.17,0,0,0,0-4.55C152.78,180.59,152.54,182.34,153.47,183.44Z"/><path class="cls-2" d="M154.31,182.56a1.77,1.77,0,0,1-.14-1.22,9.87,9.87,0,0,1,.66-2.45,17.79,17.79,0,0,0-.38-1.93,15.2,15.2,0,0,0-1,1.93,14.17,14.17,0,0,1,0,4.55,2.68,2.68,0,0,0,1.15.79c.1-.4.17-.81.23-1.22A1.32,1.32,0,0,1,154.31,182.56Z"/><path class="cls-2" d="M158.82,173.68a26,26,0,0,0,9.38-3,10,10,0,0,0,1-.64,29.53,29.53,0,0,0-3.79.82A27.41,27.41,0,0,0,158.82,173.68Z"/><path class="cls-2" d="M176,178.43c1.08-.35,1.9.85,2.12,1.79a4.88,4.88,0,0,1-.56,3.19,12.62,12.62,0,0,1-5.73,5.1,15.47,15.47,0,0,1-8.19,1.85c-1.8-.13-6.14-1.53-4.2-4.1a1,1,0,0,0-.12-1.42,16.49,16.49,0,0,1-1.86,0,.79.79,0,0,0-.17.19c-1.78,2.35-.26,5.52,2.09,6.77,2.67,1.42,6.06,1.34,8.94.69,5.2-1.19,11.93-5.1,12.35-11.06a5.91,5.91,0,0,0-.46-2.62L179,179a4.08,4.08,0,0,1,.43,1.46c.28,3.5-2.52,6.49-5.51,8.32-3.44,2.11-7.56,3.37-11.54,2.67a6.26,6.26,0,0,1-3.78-1.87,3.17,3.17,0,0,1-.23-4,3.17,3.17,0,0,0,.23,4,6.26,6.26,0,0,0,3.78,1.87c4,.7,8.1-.56,11.54-2.67,3-1.83,5.79-4.82,5.51-8.32A4.08,4.08,0,0,0,179,179l-.42.07a1.37,1.37,0,0,1-1.46-1.86,2,2,0,0,0-1.45,0,2,2,0,0,1,1.45,0,1,1,0,0,1,.8-.55l.62-.11a3.41,3.41,0,0,0-3.2-.53,1.33,1.33,0,0,0-.24.11c-.2.28-.4.56-.6.82A1.2,1.2,0,0,0,176,178.43Z"/><path class="cls-2" d="M174.48,177c.2-.26.4-.54.6-.82A1.2,1.2,0,0,0,174.48,177Z"/><path class="cls-2" d="M159.31,184.84a1.4,1.4,0,0,0-1.86,0A16.49,16.49,0,0,0,159.31,184.84Z"/><path class="cls-2" d="M179.56,177.64a71.18,71.18,0,0,0,37-18.72,71.18,71.18,0,0,1-37,18.72,6.68,6.68,0,0,1,.64,1.14,72.77,72.77,0,0,0,37.27-19c1.16-1.12-.61-2.88-1.77-1.77a70.5,70.5,0,0,1-37.18,18.51A4.91,4.91,0,0,1,179.56,177.64Z"/><path class="cls-2" d="M177.1,177.21a1.37,1.37,0,0,0,1.46,1.86L179,179A3.55,3.55,0,0,0,177.1,177.21Z"/><path class="cls-2" d="M177.1,177.21A3.55,3.55,0,0,1,179,179l1.22-.22a6.68,6.68,0,0,0-.64-1.14c-.44.07-.88.16-1.33.22.45-.06.89-.15,1.33-.22a4.91,4.91,0,0,0-1-1.09l-.62.11A1,1,0,0,0,177.1,177.21Z"/><path class="cls-2" d="M206.84,153.93a1.11,1.11,0,0,0-.51.22q-4.07,3-8.14,6a79.17,79.17,0,0,1-7.68,5.34c-5.68,3.27-11.89,3.11-18.22,2.7a1.17,1.17,0,0,0-1.12,1.65,8.85,8.85,0,0,1,1,0,5.37,5.37,0,0,1,2.91,1c5.49.22,10.88-.09,15.88-2.76a63.23,63.23,0,0,0,7.87-5.33l8.74-6.46a1.25,1.25,0,0,0,.45-.61l-.43-.1A1.17,1.17,0,0,1,206.84,153.93Zm-9.8,8.65c-3.11,2.29-6.27,4.62-9.92,5.88-4.72,1.62-9.85,1.32-14.83,1,5,.32,10.11.62,14.83-1,3.65-1.26,6.81-3.59,9.92-5.88l9.92-7.35Z"/><path class="cls-2" d="M171.17,169.86a1.21,1.21,0,0,0,1.12.85c.94.06,1.89.12,2.82.15a5.37,5.37,0,0,0-2.91-1A8.85,8.85,0,0,0,171.17,169.86Z"/><path class="cls-2" d="M219.74,136.66c-2-1-3.81-1.39-5.17-3.28a23.16,23.16,0,0,1-2.75-6.18l-2.77-8q-3.27-9.42-6.52-18.83a1.27,1.27,0,0,0-.55-.68,12.64,12.64,0,0,1-1.8.41,1.09,1.09,0,0,0-.07.93l5.22,15.07c1.66,4.8,3.19,9.67,5,14.41a17.57,17.57,0,0,0,2.67,4.95,10.65,10.65,0,0,0,4.7,3c2.19.87,2.79,2.49,3.22,4.67a15.7,15.7,0,0,1,.33,6.43c-1.18,5.17-6.78,4.9-11.08,4a6.65,6.65,0,0,1-.32.66,1.15,1.15,0,0,1-.47.46,20.06,20.06,0,0,0,5.7.7,8.22,8.22,0,0,0,6.3-3.06c1.83-2.58,1.39-6.08.82-9.19-.33-1.78-.77-3.7-2.16-4.85-1.08-.89-2.53-1.14-3.77-1.79-2.94-1.52-4.27-4.94-5.35-8.08l-9.62-27.78,9.62,27.78c1.08,3.14,2.41,6.56,5.35,8.08,1.24.65,2.69.9,3.77,1.79,1.39,1.15,1.83,3.07,2.16,4.85.57,3.11,1,6.61-.82,9.19a8.22,8.22,0,0,1-6.3,3.06,20.06,20.06,0,0,1-5.7-.7,1.28,1.28,0,0,1-1.49-.26,1.45,1.45,0,0,1,.14,1.22c4.42,1.08,9.56,1.92,13.27-1.38,3.52-3.13,2.83-8.43,1.88-12.54A7.1,7.1,0,0,0,219.74,136.66Z"/><path class="cls-2" d="M207.63,153.2a1.27,1.27,0,0,0-.79.73,1,1,0,0,1,.85.28A1.08,1.08,0,0,1,207.63,153.2Z"/><path class="cls-2" d="M200.18,100.09a12.64,12.64,0,0,0,1.8-.41A1.36,1.36,0,0,0,200.18,100.09Z"/><path class="cls-2" d="M207.91,154.48a1.13,1.13,0,0,1-.22-.27,1,1,0,0,0-.85-.28,1.17,1.17,0,0,0,.78,1.67l.43.1A1.45,1.45,0,0,0,207.91,154.48Z"/><path class="cls-2" d="M208.3,141.7q-2.45-7.14-5.18-14.17c-1.78-4.59-3.67-9.13-5.6-13.66a61.65,61.65,0,0,1-4.37-13.34,13.09,13.09,0,0,1-2.24-.46,1.28,1.28,0,0,0-.2,1,58.68,58.68,0,0,0,4.17,13c1.8,4.27,3.61,8.53,5.3,12.85s3.36,8.78,4.91,13.22c.81,2.3,1.6,4.6,2.35,6.91.62,1.93,1.36,4.16.27,6.05a.71.71,0,0,0-.08.18,1.22,1.22,0,0,1,.66,0l.65.15c1.06-2,.42-4.51-.3-6.7q-5-15.25-11.3-30c-2.2-5.17-4.53-10.36-5.43-15.91.9,5.55,3.23,10.74,5.43,15.91q6.28,14.78,11.3,30c.72,2.19,1.36,4.71.3,6.7.4.1.82.19,1.25.28C211.82,149.86,209.53,145.28,208.3,141.7Z"/><path class="cls-2" d="M193.12,100.36c-.21-1.21-1.65-1.1-2.21-.29a13.09,13.09,0,0,0,2.24.46Z"/><path class="cls-2" d="M208.79,153.65c.06-.1.1-.21.15-.31l-.65-.15a1.22,1.22,0,0,0-.66,0,1.08,1.08,0,0,0,.06,1,2,2,0,0,1,.22.27,1.28,1.28,0,0,0,1.49.26l-1.45-.35,1.45.35a1.15,1.15,0,0,0,.47-.46,6.65,6.65,0,0,0,.32-.66c-.43-.09-.85-.18-1.25-.28C208.89,153.44,208.85,153.55,208.79,153.65Z"/><path class="cls-2" d="M207.91,154.48a2,2,0,0,0-.22-.27A1.13,1.13,0,0,0,207.91,154.48Z"/><path class="cls-2" d="M132.36,213.28l0,.08A.23.23,0,0,0,132.36,213.28Z"/><path class="cls-2" d="M132.54,215.7A17.36,17.36,0,0,0,134.6,210c-.4-.17-.79-.35-1.17-.55a17,17,0,0,1-.68,2.82c-.09.27-.19.53-.29.79a2.44,2.44,0,0,1-.1.24.23.23,0,0,1,0,.08l0-.08s-.11.26-.13.29c-.23.51-.49,1-.77,1.5a1.25,1.25,0,1,0,2.16,1.26,18.65,18.65,0,0,0,2.16-5.92c-.4-.12-.79-.27-1.18-.43A17.36,17.36,0,0,1,132.54,215.7Z"/><path class="cls-2" d="M135.05,208.15a1.51,1.51,0,0,0-1,.17,12.88,12.88,0,0,0,1.91.81,1.07,1.07,0,0,0-.14-.4A1.29,1.29,0,0,0,135.05,208.15Z"/><path class="cls-2" d="M135.93,209.13a12.88,12.88,0,0,1-1.91-.81,1,1,0,0,0-.51.71c0,.13-.06.27-.08.4.38.2.77.38,1.17.55,0-.21.09-.41.11-.62,0,.21-.08.41-.11.62.39.16.78.31,1.18.43.05-.24.11-.48.14-.72A1.76,1.76,0,0,0,135.93,209.13Z"/><path class="cls-2" d="M92.48,252.29c3-.75,6.29-1,8.92-2.66a17.16,17.16,0,0,0,4.8-5.36,123.09,123.09,0,0,0,11.73-22.83,123.09,123.09,0,0,1-11.73,22.83,17.16,17.16,0,0,1-4.8,5.36c-2.63,1.68-5.89,1.91-8.92,2.66-2.61.65-5.35,2-6.59,4.27l.14.09-.24.1a5.27,5.27,0,0,0-.39,1l-.81-.5-.39.17a3.24,3.24,0,0,1,.13-.33,162.55,162.55,0,0,0-28.18-13.84c-5-1.89-10.7-4-12.88-8.92-.56-1.27-.85-2.67-1.51-3.9-2-3.66-6.61-4.94-9.43-8a1,1,0,0,1-1,.5h-.19c2.43,2.8,6.15,4,8.61,6.73,1.44,1.59,1.73,3.73,2.64,5.6A12.58,12.58,0,0,0,46,239.59c3.09,2.41,6.85,3.71,10.48,5.09q7,2.64,13.64,5.94a161.84,161.84,0,0,1,14.67,8.19,1.27,1.27,0,0,0,1.84-.75c1.19-3.86,6-4.55,9.41-5.24a17.52,17.52,0,0,0,6-2.11,15.56,15.56,0,0,0,4.11-4.14A110.59,110.59,0,0,0,119,222.15l-1.14-1.2c-.17-.17-.33-.35-.5-.53a1.25,1.25,0,0,0-.62.69,121.06,121.06,0,0,1-6,13A76.34,76.34,0,0,1,103.44,246a10.57,10.57,0,0,1-4.93,3.58c-2.07.7-4.25.94-6.36,1.48-2.91.73-5.81,2.22-7.3,4.84l1,.63C87.13,254.28,89.87,252.94,92.48,252.29Z"/><path class="cls-2" d="M32.33,222.44c2.82,3,7.47,4.31,9.43,8,.66,1.23,1,2.63,1.51,3.9,2.18,4.91,7.85,7,12.88,8.92a162.55,162.55,0,0,1,28.18,13.84,8.44,8.44,0,0,1,.52-1.14,166,166,0,0,0-24.72-12.49c-3.8-1.53-7.84-2.7-11.32-4.9a11.57,11.57,0,0,1-4-3.92c-1-1.81-1.3-4-2.53-5.7-2.44-3.44-6.79-4.65-9.49-7.81a1,1,0,0,0-.89-.41A1.46,1.46,0,0,1,32.33,222.44Z"/><path class="cls-2" d="M84.59,257.23l-.26-.16a3.24,3.24,0,0,0-.13.33Z"/><path class="cls-2" d="M84.59,257.23l1.2-.48a1.14,1.14,0,0,1,.1-.19l-1-.63a8.44,8.44,0,0,0-.52,1.14Z"/><path class="cls-2" d="M85.79,256.75l-1.2.48.81.5A5.27,5.27,0,0,1,85.79,256.75Z"/><path class="cls-2" d="M85.89,256.56a1.14,1.14,0,0,0-.1.19l.24-.1Z"/><path class="cls-2" d="M119,222.15l.15-.38c.45-1.15-.89-1.8-1.79-1.35.17.18.33.36.5.53Z"/><path class="cls-2" d="M22.25,290.5a3.15,3.15,0,0,1-3.05,1.15,6.8,6.8,0,0,1-3.7-2.74c-6.77-8.5-7.93-20.42-5.61-31s7.71-20.27,13-29.75c1.76-3.14,4.41-6.73,7.89-6.49a1.37,1.37,0,0,1,1.12-.94,1.36,1.36,0,0,0-.64-.26c-3.8-.51-6.64,2.6-8.51,5.5a134.38,134.38,0,0,0-6.58,11.94c-4.08,8-7.52,16.46-8.42,25.46-.78,7.9.42,16.26,4.54,23.15,1.73,2.89,4.65,7.36,8.63,6.3a4.17,4.17,0,0,0,2.37-1.65L22.9,291A1.27,1.27,0,0,1,22.25,290.5Z"/><path class="cls-2" d="M20.24,257.68a27,27,0,0,0-3.91,20,25.6,25.6,0,0,0,4,9.67c.4.59,1.3,1.52,1,2.29s-1.34.92-2,.78c-1.72-.35-3-2.34-3.93-3.69-9.13-13.31-5.17-30.59,1.24-44.1,2-4.24,4.27-8.36,6.56-12.45,1.64-2.92,3.91-7.6,7.88-7.22a.12.12,0,0,0-.05-.05,1.26,1.26,0,0,1-.24-1.24c-3.48-.24-6.13,3.35-7.89,6.49-5.31,9.48-10.7,19.13-13,29.75s-1.16,22.53,5.61,31a6.8,6.8,0,0,0,3.7,2.74,3.15,3.15,0,0,0,3.05-1.15,1.38,1.38,0,0,1,.3-1.77,6.59,6.59,0,0,0-1.05-1.88,25.71,25.71,0,0,1-.18-28.54,25.71,25.71,0,0,0,.18,28.54,6.59,6.59,0,0,1,1.05,1.88,1,1,0,0,1,1-.12l.25.09c-.3-1.63-1.67-3-2.46-4.4a24.59,24.59,0,0,1,.82-25c.11-.45.23-.9.37-1.35A1.32,1.32,0,0,0,20.24,257.68Z"/><path class="cls-2" d="M30.8,221.64a3.91,3.91,0,0,1,.48.05,3.91,3.91,0,0,0-.48-.05,1.26,1.26,0,0,0,.24,1.24.12.12,0,0,1,.05.05h.19a1,1,0,0,0,1-.5,5.6,5.6,0,0,1-.4-.45,5.6,5.6,0,0,0,.4.45,1.46,1.46,0,0,0-.41-1.74A1.37,1.37,0,0,0,30.8,221.64Z"/><path class="cls-2" d="M126.09,231.24a263,263,0,0,1-23.56,32c-1.85,2.14-3.89,4.35-6.57,5.42a13.41,13.41,0,0,1-8.93,0c-5.94-1.85-10.63-6.35-16-9.32-9.79-5.42-21.21-7.59-30.35-14.22-2-1.45-4.24-4.28-7-3.57-2.31.59-4.17,3.39-5.52,5.2A35.16,35.16,0,0,0,22.55,258a1.08,1.08,0,0,1-.15,1c-.08.12-.15.24-.22.36-.09.34-.18.69-.26,1a38.41,38.41,0,0,0-.07,16.6,34.94,34.94,0,0,0,2.83,8c.28.55,2.25,3.37,1.88,3.83s-2,.18-2.74-.07a3.71,3.71,0,0,1,.06.67,3.2,3.2,0,0,1-.07.63c1.68.47,3.84.41,4-1.22a3.19,3.19,0,0,0-.7-2c-8.16-13.19-6-31.88,5-42.86A4.27,4.27,0,0,1,34,242.69c1.43-.34,2.76.77,3.89,1.73,9.67,8.25,23.18,10.26,34.07,16.82,3.9,2.35,7.46,5.28,11.55,7.28s9,3,13.19,1.16c2.94-1.28,5.16-3.75,7.24-6.19a271.07,271.07,0,0,0,23.24-31.62,271.07,271.07,0,0,1-23.24,31.62c-2.08,2.44-4.3,4.91-7.24,6.19-4.18,1.8-9.09.83-13.19-1.16s-7.65-4.93-11.55-7.28c-10.89-6.56-24.4-8.57-34.07-16.82-1.13-1-2.46-2.07-3.89-1.73a4.27,4.27,0,0,0-1.87,1.25c-11,11-13.13,29.67-5,42.86a3.19,3.19,0,0,1,.7,2c-.2,1.63-2.36,1.69-4,1.22a3.25,3.25,0,0,1-.5,1.14c1.77.54,4.27.7,5.36-1a3.2,3.2,0,0,0,0-3.18c-.65-1.33-1.5-2.55-2.13-3.89a33.56,33.56,0,0,1-3.06-14.93A35.35,35.35,0,0,1,27,253.24a31.58,31.58,0,0,1,4.27-6.58,10.28,10.28,0,0,1,2.61-2.61c1.45-.71,3.14,1.34,4.14,2.13,9.11,7.17,20.75,9.43,30.84,14.77,5.44,2.89,10.09,7.17,15.84,9.47a18.15,18.15,0,0,0,9,1.32,14.15,14.15,0,0,0,7.6-3.7,70.15,70.15,0,0,0,7-8q3.51-4.29,6.84-8.72,6.9-9.14,13-18.85a1.24,1.24,0,0,0,.18-.44c-.45-.47-.9-.93-1.34-1.4A1.2,1.2,0,0,0,126.09,231.24Z"/><path class="cls-2" d="M127.09,230.66c.44.47.89.93,1.34,1.4A1.27,1.27,0,0,0,127.09,230.66Z"/><path class="cls-2" d="M22.25,290.5a2,2,0,0,0,.38-1.13,2.29,2.29,0,0,0-.08-.64A1.38,1.38,0,0,0,22.25,290.5Z"/><path class="cls-2" d="M23.24,289.81a4.76,4.76,0,0,0,.57.19,3.2,3.2,0,0,0,.07-.63,3.71,3.71,0,0,0-.06-.67l-.25-.09a1,1,0,0,0-1,.12,2.29,2.29,0,0,1,.08.64,2,2,0,0,1-.38,1.13,1.27,1.27,0,0,0,.65.52l.41.12a3.25,3.25,0,0,0,.5-1.14A4.76,4.76,0,0,1,23.24,289.81Z"/><path class="cls-2" d="M22.4,258.94a1.08,1.08,0,0,0,.15-1c-.14.45-.26.9-.37,1.35C22.25,259.18,22.32,259.06,22.4,258.94Z"/><path class="cls-2" d="M168.08,351.8h.25v0h-.29Z"/><path class="cls-2" d="M168.08,351.8l0,0h.29a7.47,7.47,0,0,1,1-2l-1-.65a9,9,0,0,0-1.24,2.7Z"/><path class="cls-2" d="M169.27,347.89c-.07.07-.12.15-.19.23l.23.14Z"/><path class="cls-2" d="M169.61,351.78h-1.27v0Z"/><path class="cls-2" d="M170.15,348.78l-.84-.52c.06.44.12.87.17,1.31A7.35,7.35,0,0,1,170.15,348.78Z"/><path class="cls-2" d="M169.52,349.85l0-.28-.14.18Z"/><path class="cls-2" d="M169.48,349.57c0-.44-.11-.87-.17-1.31l-.23-.14a10.47,10.47,0,0,0-.78,1l1,.65Z"/><path class="cls-2" d="M168.24,275.52a1.34,1.34,0,0,0-.81,1.44L170.55,298c1,6.75,1.88,13.54,3.06,20.27,1.08,6.14,2.63,12.3,5.72,17.76a27.42,27.42,0,0,0,5.58,7.09c1.67,1.5,5.46,3,4.26,5.85-1.43,3.33-6,2.93-8.93,2.9l-10.47-.13a1.16,1.16,0,0,1,1.17,1.27l10.27.12c2.29,0,4.68,0,6.69-1.06s3.43-3.62,2.47-5.69a8.24,8.24,0,0,0-3-2.84,25.28,25.28,0,0,1-7-8.14c-4.11-7.27-5.4-15.74-6.62-24q-2.58-17.42-5.15-34.82,2.58,17.42,5.15,34.82c1.22,8.26,2.51,16.73,6.62,24a25.28,25.28,0,0,0,7,8.14,8.24,8.24,0,0,1,3,2.84c1,2.07-.46,4.62-2.47,5.69s-4.4,1.08-6.69,1.06l-10.27-.12a1.22,1.22,0,0,1-1.21,1.23h-.16l9.69.11c3.14,0,6.78.38,9.57-1.37,2.15-1.35,3.69-4.07,2.87-6.62a6.36,6.36,0,0,0-2.42-3,31.92,31.92,0,0,1-3.8-3.15c-4.67-4.83-7-11.41-8.51-17.84-1.55-6.79-2.34-13.75-3.35-20.62q-1.89-12.75-3.77-25.5a1.09,1.09,0,0,0-.41-.72A1.22,1.22,0,0,1,168.24,275.52Z"/><path class="cls-2" d="M162.38,345.33a18.45,18.45,0,0,0,3.12,2.05l2.8,1.72a10.47,10.47,0,0,1,.78-1l-5-3.06a3.31,3.31,0,0,1-1.38-1.29c-.81-1.82,1.78-3.11,3.15-4.55,2-2.05,1.51-5.32,1-8.1q-5.1-25.35-7.86-51.1,2.75,25.71,7.86,51.1c.56,2.78,1,6.05-1,8.1-1.37,1.44-4,2.73-3.15,4.55a3.31,3.31,0,0,0,1.38,1.29l5,3.06c.07-.08.12-.16.19-.23l0,.37.84.52a7.35,7.35,0,0,0-.67.79l0,.28-.18-.1a7.47,7.47,0,0,0-1,2h1.36a6.52,6.52,0,0,1,1.33-2.12,1.26,1.26,0,0,0-.25-2l-3.21-2a27.86,27.86,0,0,1-3.14-1.94c-.86-.7-.52-1.09.19-1.76s1.5-1.2,2.16-1.91c2.91-3.12,1.56-7.78.83-11.48q-3-15.35-5.19-30.84-1.24-8.86-2.19-17.76a1.27,1.27,0,0,0-.28-.69,3.62,3.62,0,0,1-2.22.59v.1q1.76,16.34,4.44,32.54,1.32,8,2.89,16a29.93,29.93,0,0,1,1,6.89,4.61,4.61,0,0,1-.92,2.74,22.35,22.35,0,0,1-2.17,1.95,4.2,4.2,0,0,0-1.57,3.31A1.36,1.36,0,0,1,162.38,345.33Z"/><path class="cls-2" d="M160,279.33c-.68-.82-2.26-.63-2.22.59A3.62,3.62,0,0,0,160,279.33Z"/><path class="cls-2" d="M168.24,275.52a1.22,1.22,0,0,0,1.2.05A1.24,1.24,0,0,0,168.24,275.52Z"/><path class="cls-2" d="M156.87,345.77l-6-2.7A17.56,17.56,0,0,0,156.87,345.77Z"/><path class="cls-2" d="M157.36,344.63l-6-2.71c.41.28.82.58,1.25.83A14.87,14.87,0,0,0,157.36,344.63Z"/><path class="cls-2" d="M146.85,339.94a40.35,40.35,0,0,0,4,3.13l6,2.7a12.35,12.35,0,0,0,3.56.24l-3.07-1.38a14.87,14.87,0,0,1-4.79-1.88c-.43-.25-.84-.55-1.25-.83l-1-.46C149.16,340.94,148,340.44,146.85,339.94Z"/><path class="cls-2" d="M150.86,343.07a40.35,40.35,0,0,1-4-3.13,104.62,104.62,0,0,1-11-5.32,25.24,25.24,0,0,1-5.88-4.55,7.66,7.66,0,0,1-1-1.17,1.71,1.71,0,0,1-.26-.58c0-.44.05-.19.45-.25,1.27-.19,2.83.69,3.88,1.29a80.49,80.49,0,0,1,13.16,10l.64.56c1.15.5,2.31,1,3.45,1.52l1,.46a66.33,66.33,0,0,1-5.85-4.88,91,91,0,0,0-10.36-7.86c-1.86-1.22-3.92-2.42-6.15-2.36a1.8,1.8,0,0,0-1.07.29c-.9.66-.33,2.08.38,2.94a20.1,20.1,0,0,0,1.85,1.95h.71a1.21,1.21,0,0,1,1.17,1.56,54.94,54.94,0,0,0,10.63,5.81Z"/><path class="cls-2" d="M128.27,330.05c-.71-.86-1.28-2.28-.38-2.94a1.8,1.8,0,0,1,1.07-.29c2.23-.06,4.29,1.14,6.15,2.36A91,91,0,0,1,145.47,337a66.33,66.33,0,0,0,5.85,4.88l6,2.71a10,10,0,0,0,3.92,0,10,10,0,0,1-3.92,0l3.07,1.38c.39,0,.78-.09,1.18-.16a1,1,0,0,0,.77-.52.5.5,0,0,1-.08-.07,2.84,2.84,0,0,1-.9-1.82,1.36,1.36,0,0,0-.45,0c-6.22,1.14-11.07-4.25-15.3-7.89q-3.47-3-7.21-5.63c-2.28-1.6-4.74-3.51-7.51-4.13-2.1-.48-5.07-.11-4.71,2.73a6.45,6.45,0,0,0,2,3.45l1.92,0A20.1,20.1,0,0,1,128.27,330.05Z"/><path class="cls-2" d="M165.62,351.06c1.45.65,2.73-1.5,1.26-2.16L160.43,346a12.35,12.35,0,0,1-3.56-.24l9.38,4.21-9.38-4.21a17.56,17.56,0,0,1-6-2.7l-8.23-3.69A54.94,54.94,0,0,1,132,333.57a1.15,1.15,0,0,1-.87.9c4.23,3.23,9.23,5.25,14.05,7.41Z"/><path class="cls-2" d="M162.38,345.33a1.36,1.36,0,0,0-1-1.89,2.84,2.84,0,0,0,.9,1.82A.5.5,0,0,0,162.38,345.33Z"/><path class="cls-2" d="M166.83,353.06a90.94,90.94,0,0,1-37.53-8.32,16.84,16.84,0,0,1-5.73-3.78,6.54,6.54,0,0,1-1.58-6.39,2.11,2.11,0,0,1,.75-1.05,2.59,2.59,0,0,1,1.38-.26h5.48c-.47-.4-.95-.83-1.4-1.29a44.44,44.44,0,0,0-4.62.06c-2,.16-2.91,1.79-3.11,3.64-.45,4.33,3,7.53,6.55,9.35a85.55,85.55,0,0,0,26.64,8.27,93.11,93.11,0,0,0,15.91,1l-1.52,0A1.21,1.21,0,0,1,166.83,353.06Z"/><path class="cls-2" d="M169.7,351.78Z"/><path class="cls-2" d="M166.85,352.68a8.67,8.67,0,0,1,.21-.88,89.92,89.92,0,0,1-21.48-2.65,91.12,91.12,0,0,1-11.53-3.72c-3.3-1.32-7.66-2.74-9.89-5.7A6.07,6.07,0,0,1,123,337c-.11-.69-.16-2.12.58-2.45a5.12,5.12,0,0,1,1.75-.05h5.51a1.36,1.36,0,0,0,.3,0c-.21-.16-.42-.3-.63-.47l-.9-.74h-5.48a2.59,2.59,0,0,0-1.38.26,2.11,2.11,0,0,0-.75,1.05,6.54,6.54,0,0,0,1.58,6.39,16.84,16.84,0,0,0,5.73,3.78,90.94,90.94,0,0,0,37.53,8.32A1.23,1.23,0,0,1,166.85,352.68Z"/><path class="cls-2" d="M169.33,353h.31l1.3,0a1.16,1.16,0,0,0-1.17-1.27h-.07A7.23,7.23,0,0,0,169.33,353Z"/><path class="cls-2" d="M168.05,353a8.46,8.46,0,0,1,.22-1l-.19-.24h-1a8.67,8.67,0,0,0-.21.88,1.23,1.23,0,0,0,0,.38l2.19,0v0Z"/><path class="cls-2" d="M168.08,351.8l.19.24c0-.08,0-.16.06-.25Z"/><path class="cls-2" d="M169.33,353h0Z"/><path class="cls-2" d="M169,353v0h0Z"/><path class="cls-2" d="M168.05,353h1c-.25-.32-.5-.65-.74-1A8.46,8.46,0,0,0,168.05,353Z"/><path class="cls-2" d="M168.27,352c.24.33.49.66.74,1h.32a7.23,7.23,0,0,1,.37-1.25h-1.37C168.3,351.88,168.29,352,168.27,352Z"/><path class="cls-2" d="M169.7,351.78h0Z"/><path class="cls-2" d="M169.26,353.35a2.82,2.82,0,0,1,.07-.31H169Z"/><path class="cls-2" d="M170.94,353.05l-1.3,0h-.31a2.82,2.82,0,0,0-.07.31L169,353l-2.19,0a1.21,1.21,0,0,0,1.22,1.2l1.52,0h.16A1.22,1.22,0,0,0,170.94,353.05Z"/><path class="cls-2" d="M130.83,332h-.71c.6.55,1.23,1.08,1.88,1.57A1.21,1.21,0,0,0,130.83,332Z"/><path class="cls-2" d="M129.6,333.26h0l.9.74c.21.17.42.31.63.47a1.15,1.15,0,0,0,.87-.9c-.65-.49-1.28-1-1.88-1.57l-1.92,0C128.65,332.43,129.13,332.86,129.6,333.26Z"/></svg>